<?xml version="1.0" encoding="UTF-8"?>
<svg width="13px" height="23px" viewBox="0 0 13 23" version="1.1" xmlns="http://www.w3.org/2000/svg" xmlns:xlink="http://www.w3.org/1999/xlink">
    <!-- Generator: Sketch 51.3 (57544) - http://www.bohemiancoding.com/sketch -->
    <title>Fill 1</title>
    <desc>Created with Sketch.</desc>
    <defs></defs>
    <g id="1.-Desktop" stroke="none" stroke-width="1" fill="none" fill-rule="evenodd">
        <g id="Acceuil" transform="translate(-1316.000000, -363.000000)" fill="#FF0032">
            <g id="Accès-gauche" transform="translate(1269.000000, 152.000000)">
                <path d="M48.8674061,211.398915 C49.3361644,211.407571 49.7940874,211.600716 50.1317312,211.926258 C53.271362,215.027805 56.3911172,218.149516 59.4936577,221.288169 C60.1539585,221.972753 60.1833711,223.146308 59.493866,223.861635 C56.3922072,227.00141 53.2720512,230.123024 50.1315388,233.223946 C49.2085121,234.1132 47.3801063,233.697753 47.0503326,232.329482 C46.9014904,231.71193 47.0880159,231.029429 47.5402808,230.57133 L55.5653524,222.575014 L47.5403609,214.578842 C47.4428104,214.479945 47.4218129,214.451254 47.3705051,214.382972 C46.5816544,213.332613 47.2541691,211.44652 48.8006948,211.399396 C48.8229426,211.398915 48.8451583,211.398755 48.8674061,211.398915 Z" id="Fill-1"></path>
            </g>
        </g>
    </g>
</svg>