<?xml version="1.0" encoding="UTF-8"?>
<svg width="21px" height="16px" viewBox="0 0 21 16" version="1.1" xmlns="http://www.w3.org/2000/svg" xmlns:xlink="http://www.w3.org/1999/xlink">
    <!-- Generator: Sketch 51.3 (57544) - http://www.bohemiancoding.com/sketch -->
    <title>Fill 76@3x</title>
    <desc>Created with Sketch.</desc>
    <defs></defs>
    <g id="1.-Desktop" stroke="none" stroke-width="1" fill="none" fill-rule="evenodd" fill-opacity="0.5042">
        <g id="Acceuil" transform="translate(-40.000000, -43.000000)" fill="#FFFFFF">
            <g id="Logo" transform="translate(40.000000, 41.000000)">
                <path d="M1.125,2.756 C0.51605,2.756 2e-05,3.24 0,3.849 C0,4.458 0.51598,4.943 1.125,4.943 L16.375,4.943 C16.98395,4.943 17.46875,4.458 17.46875,3.849 C17.46875,3.24 16.98397,2.756 16.375,2.756 L1.125,2.756 Z M1.125,9.131 C0.51605,9.131 -1e-05,9.615 0,10.224 C0,10.833 0.51601,11.349 1.125,11.349 L19.90625,11.349 C20.5152,11.349 21.00006,10.833 21,10.224 C21,9.615 20.51516,9.131 19.90625,9.131 L1.125,9.131 Z M1.125,15.506 C0.51605,15.506 -2e-05,15.99 0,16.599 C0,17.208 0.51602,17.724 1.125,17.724 L13.625,17.724 C14.23395,17.724 14.75001,17.208 14.75,16.599 C14.75,15.99 14.23399,15.506 13.625,15.506 L1.125,15.506 Z" id="Fill-76"></path>
            </g>
        </g>
    </g>
</svg>