<?xml version="1.0" encoding="UTF-8"?>
<svg width="66px" height="22px" viewBox="0 0 66 22" version="1.1" xmlns="http://www.w3.org/2000/svg" xmlns:xlink="http://www.w3.org/1999/xlink">
    <!-- Generator: Sketch 51.3 (57544) - http://www.bohemiancoding.com/sketch -->
    <title>Group 42@3x</title>
    <desc>Created with Sketch.</desc>
    <defs></defs>
    <g id="1.-Desktop" stroke="none" stroke-width="1" fill="none" fill-rule="evenodd">
        <g id="Acceuil" transform="translate(-319.000000, -547.000000)" fill="#FFFFFF">
            <g id="Accroche" transform="translate(158.000000, 283.124176)">
                <g id="Logos-références" transform="translate(161.000000, 261.162824)">
                    <g id="Group-2" transform="translate(0.000000, 2.713000)">
                        <g id="Group-42">
                            <path d="M9.0422,8.185 L9.0422,10.37 L14.2638,10.37 C14.1042,11.595 13.6954,12.492 13.0741,13.122 C12.3104,13.886 11.1203,14.721 9.0422,14.721 C5.8274,14.721 3.3143,12.128 3.3143,8.913 C3.3143,5.698 5.8274,3.105 9.0422,3.105 C10.774,3.105 12.0438,3.789 12.9764,4.668 L14.5127,3.132 C13.216,1.871 11.4754,0.912 9.0422,0.912 C4.6375,0.912 0.9345,4.499 0.9345,8.904 C0.9345,13.309 4.6375,16.897 9.0422,16.897 C11.4222,16.897 13.216,16.115 14.6189,14.659 C16.0576,13.22 16.5108,11.186 16.5108,9.553 C16.5108,9.046 16.4751,8.576 16.3953,8.185 L9.0422,8.185 Z" id="Fill-35"></path>
                            <path d="M23.0377,14.694 C21.475,14.694 20.125,13.407 20.125,11.568 C20.125,9.713 21.475,8.442 23.0377,8.442 C24.6008,8.442 25.9507,9.713 25.9507,11.568 C25.9507,13.407 24.6008,14.694 23.0377,14.694 Z M23.0377,6.409 C20.1872,6.409 17.8605,8.576 17.8605,11.568 C17.8605,14.534 20.1872,16.728 23.0377,16.728 C25.8886,16.728 28.2154,14.543 28.2154,11.568 C28.2154,8.576 25.8886,6.409 23.0377,6.409 Z" id="Fill-37"></path>
                            <path d="M45.8164,14.694 C44.2535,14.694 43.0634,13.362 43.0634,11.568 C43.0634,9.748 44.2535,8.442 45.8164,8.442 C47.3615,8.442 48.5695,9.774 48.5695,11.586 C48.5782,13.389 47.3615,14.694 45.8164,14.694 Z M48.4182,7.563 L48.3384,7.563 C47.8324,6.959 46.8555,6.409 45.6211,6.409 C43.0457,6.409 40.7989,8.656 40.7989,11.568 C40.7989,14.463 43.0457,16.728 45.6211,16.728 C46.8555,16.728 47.8324,16.177 48.3384,15.556 L48.4182,15.556 L48.4182,16.275 C48.4182,18.247 47.3615,19.303 45.6653,19.303 C44.2801,19.303 43.4187,18.309 43.0634,17.465 L41.0919,18.282 C41.6602,19.65 43.161,21.328 45.6653,21.328 C48.3205,21.328 50.5676,19.765 50.5676,15.955 L50.5676,6.675 L48.4182,6.675 L48.4182,7.563 Z" id="Fill-38"></path>
                            <path d="M34.5825,14.694 C33.0196,14.694 31.6698,13.407 31.6698,11.568 C31.6698,9.713 33.0196,8.442 34.5825,8.442 C36.1456,8.442 37.4955,9.713 37.4955,11.568 C37.4955,13.407 36.1456,14.694 34.5825,14.694 Z M34.5825,6.409 C31.732,6.409 29.4051,8.576 29.4051,11.568 C29.4051,14.534 31.732,16.728 34.5825,16.728 C37.4332,16.728 39.7598,14.543 39.7598,11.568 C39.7598,8.576 37.4332,6.409 34.5825,6.409 Z" id="Fill-39"></path>
                            <polygon id="Fill-40" points="52.3435 16.728 54.572661 16.728 54.572661 1.12489 52.3435 1.12489"></polygon>
                            <path d="M61.2951,8.345 C62.2096,8.345 62.9912,8.815 63.2487,9.481 L58.5865,11.408 C58.5865,9.242 60.1228,8.345 61.2951,8.345 Z M61.4549,14.694 C60.3005,14.694 59.4836,14.17 58.9506,13.131 L65.8508,10.281 L65.62,9.695 C65.1935,8.54 63.8794,6.409 61.2063,6.409 C58.5509,6.409 56.3399,8.496 56.3399,11.568 C56.3399,14.463 58.5243,16.728 61.4549,16.728 C63.817,16.728 65.1846,15.281 65.753,14.446 L63.9947,13.274 C63.4087,14.126 62.6094,14.694 61.4549,14.694 Z" id="Fill-41"></path>
                        </g>
                    </g>
                </g>
            </g>
        </g>
    </g>
</svg>