<?xml version="1.0" encoding="UTF-8"?>
<svg width="26px" height="26px" viewBox="0 0 26 26" version="1.1" xmlns="http://www.w3.org/2000/svg" xmlns:xlink="http://www.w3.org/1999/xlink">
    <!-- Generator: Sketch 51.3 (57544) - http://www.bohemiancoding.com/sketch -->
    <title>Group@3x</title>
    <desc>Created with Sketch.</desc>
    <defs></defs>
    <g id="1.-Desktop" stroke="none" stroke-width="1" fill="none" fill-rule="evenodd">
        <g id="Acceuil" transform="translate(-660.000000, -543.000000)">
            <g id="Accroche" transform="translate(158.000000, 283.124176)">
                <g id="Logos-références" transform="translate(161.000000, 261.162824)">
                    <g id="Group" transform="translate(342.362700, 0.000000)">
                        <polygon id="Fill-31" fill="#818181" points="11.6896 7.254 11.6896 11.689 7.2545 11.689 7.2545 12.565 11.6896 12.565 11.6896 17 12.566 17 12.566 12.565 17.001 12.565 17.001 11.689 12.566 11.689 12.566 7.254"></polygon>
                        <path d="M20.69924,3.551427 C25.43447,8.286664 25.43447,15.964 20.69924,20.69924 C15.964,25.43447 8.286664,25.43447 3.551427,20.69924 C-1.183809,15.964 -1.183809,8.286664 3.551427,3.551427 C8.286664,-1.183809 15.964,-1.183809 20.69924,3.551427 Z" id="Stroke-33" stroke="#818181" stroke-width="0.75"></path>
                    </g>
                </g>
            </g>
        </g>
    </g>
</svg>