<?xml version="1.0" encoding="UTF-8"?>
<svg width="87px" height="14px" viewBox="0 0 87 14" version="1.1" xmlns="http://www.w3.org/2000/svg" xmlns:xlink="http://www.w3.org/1999/xlink">
    <!-- Generator: Sketch 51.3 (57544) - http://www.bohemiancoding.com/sketch -->
    <title>Group 51</title>
    <desc>Created with Sketch.</desc>
    <defs></defs>
    <g id="1.-Desktop" stroke="none" stroke-width="1" fill="none" fill-rule="evenodd">
        <g id="Acceuil" transform="translate(-470.000000, -550.000000)">
            <g id="Accroche" transform="translate(158.000000, 283.124176)">
                <g id="Logos-références" transform="translate(161.000000, 261.162824)">
                    <g id="Group-2" transform="translate(0.000000, 2.713000)">
                        <g id="Group-51" transform="translate(151.000000, 3.000000)">
                            <polygon id="Clip-44" points="0.6358 0.45068 86.12876 0.45068 86.12876 13.533 0.6358 13.533"></polygon>
                            <polygon id="Fill-43" fill="#FFFFFF" points="71.3956 10.426 71.2295 0.836 74.2528 0.836 74.2528 12.925 69.9059 12.925 66.8875 3.005 66.8215 3.005 66.99 12.925 63.9838 12.925 63.9838 0.836 68.5212 0.836 71.3296 10.426"></polygon>
                            <polygon id="Fill-45" fill="#FFFFFF" points="16.424 1.969 14.7511 13.052 11.4519 13.052 13.7157 0.836 19.1493 0.836 21.4058 13.052 18.1188 13.052 16.4923 1.969"></polygon>
                            <polygon id="Fill-46" fill="#FFFFFF" points="30.6687 10.175 32.1779 0.836 37.1598 0.836 37.4236 13.052 34.3709 13.052 34.2904 2.069 34.2269 2.069 32.1853 13.052 29.0862 13.052 27.0422 2.069 26.9763 2.069 26.9006 13.052 23.8406 13.052 24.1117 0.836 29.096 0.836 30.6028 10.175"></polygon>
                            <path d="M6.3088,9.606 C6.4285,9.901 6.3918,10.282 6.3357,10.512 C6.2331,10.917 5.9571,11.332 5.1464,11.332 C4.3795,11.332 3.9155,10.893 3.9155,10.224 L3.9155,9.042 L0.6382,9.042 L0.6358,9.987 C0.6358,12.71 2.78,13.533 5.078,13.533 C7.2881,13.533 9.1074,12.778 9.3956,10.741 C9.5446,9.686 9.4322,8.995 9.3834,8.734 C8.8681,6.177 4.2306,5.413 3.8862,3.984 C3.8276,3.74 3.8447,3.479 3.874,3.339 C3.9595,2.951 4.2257,2.521 4.9901,2.521 C5.7032,2.521 6.1256,2.963 6.1256,3.63 C6.1256,3.855 6.1256,4.385 6.1256,4.385 L9.1709,4.385 L9.1709,3.527 C9.1709,0.865 6.7826,0.45 5.0536,0.45 C2.8801,0.45 1.1047,1.168 0.7799,3.156 C0.692,3.706 0.6798,4.194 0.8068,4.807 C1.3416,7.3 5.6787,8.023 6.3088,9.606 Z" id="Fill-47" fill="#FFFFFF"></path>
                            <path d="M46.0295,9.584 C46.1492,9.877 46.1101,10.248 46.0564,10.478 C45.9563,10.883 45.6827,11.291 44.8768,11.291 C44.1222,11.291 43.6607,10.851 43.6607,10.197 L43.6582,9.025 L40.4151,9.025 L40.4102,9.957 C40.4102,12.653 42.5349,13.467 44.8085,13.467 C46.9941,13.467 48.7964,12.722 49.0821,10.705 C49.2311,9.657 49.1261,8.976 49.0724,8.719 C48.5595,6.187 43.9708,5.43 43.6289,4.013 C43.5703,3.769 43.5874,3.513 43.6167,3.381 C43.7046,2.988 43.9659,2.57 44.723,2.57 C45.4312,2.57 45.8439,3 45.8439,3.664 C45.8439,3.886 45.8439,4.411 45.8439,4.411 L48.8672,4.411 L48.8672,3.562 C48.8672,0.929 46.4984,0.516 44.784,0.516 C42.635,0.516 40.8742,1.224 40.5568,3.2 C40.4689,3.742 40.4591,4.221 40.5861,4.831 C41.1111,7.3 45.4068,8.018 46.0295,9.584 Z" id="Fill-48" fill="#FFFFFF"></path>
                            <path d="M56.2888,11.225 C57.1362,11.225 57.3999,10.639 57.4585,10.338 C57.483,10.206 57.4903,10.031 57.4878,9.872 L57.4878,0.831 L60.5771,0.831 L60.5771,9.594 C60.5844,9.818 60.5624,10.28 60.5502,10.395 C60.3329,12.675 58.5306,13.415 56.2863,13.415 C54.0396,13.415 52.2349,12.675 52.02,10.395 C52.0102,10.28 51.9882,9.816 51.9931,9.594 L51.9931,0.831 L55.0799,0.831 L55.0799,9.869 C55.0799,10.028 55.0848,10.206 55.1092,10.336 C55.1776,10.636 55.434,11.225 56.2888,11.225 Z" id="Fill-49" fill="#FFFFFF"></path>
                            <path d="M81.7721,11.095 C82.6561,11.095 82.9662,10.536 83.0224,10.211 C83.0444,10.072 83.0517,9.901 83.0493,9.747 L83.0493,7.974 L81.7965,7.974 L81.7965,6.192 L86.1288,6.192 L86.1288,9.471 C86.1263,9.701 86.1214,9.869 86.0848,10.277 C85.8821,12.5 83.9529,13.293 81.7892,13.293 C79.6206,13.293 77.6962,12.5 77.4886,10.277 C77.4544,9.869 77.4495,9.701 77.4447,9.471 L77.4471,4.328 C77.4471,4.111 77.474,3.728 77.4984,3.522 C77.7695,1.239 79.6206,0.504 81.7892,0.504 C83.9553,0.504 85.8528,1.234 86.0775,3.522 C86.1166,3.911 86.1043,4.328 86.1043,4.328 L86.1043,4.736 L83.0249,4.736 L83.0249,4.052 C83.0273,4.055 83.02,3.762 82.9858,3.588 C82.9345,3.317 82.7001,2.697 81.7672,2.697 C80.8758,2.697 80.6169,3.283 80.551,3.588 C80.5144,3.75 80.4997,3.967 80.4997,4.165 L80.4997,9.752 C80.4973,9.906 80.5071,10.077 80.5315,10.216 C80.5803,10.536 80.888,11.095 81.7721,11.095 Z" id="Fill-50" fill="#FFFFFF"></path>
                        </g>
                    </g>
                </g>
            </g>
        </g>
    </g>
</svg>