<?xml version="1.0" encoding="UTF-8"?>
<svg width="53px" height="14px" viewBox="0 0 53 14" version="1.1" xmlns="http://www.w3.org/2000/svg" xmlns:xlink="http://www.w3.org/1999/xlink">
    <!-- Generator: Sketch 51.3 (57544) - http://www.bohemiancoding.com/sketch -->
    <title>Group 57@3x</title>
    <desc>Created with Sketch.</desc>
    <defs></defs>
    <g id="1.-Desktop" stroke="none" stroke-width="1" fill="none" fill-rule="evenodd">
        <g id="Acceuil" transform="translate(-403.000000, -550.000000)">
            <g id="Accroche" transform="translate(158.000000, 283.124176)">
                <g id="Logos-références" transform="translate(161.000000, 261.162824)">
                    <g id="Group-2" transform="translate(0.000000, 2.713000)">
                        <g id="Group-57" transform="translate(84.000000, 3.000000)">
                            <polygon id="Clip-53" points="0.631 0.45068 52.41518 0.45068 52.41518 13.533 0.631 13.533"></polygon>
                            <path d="M11.1047,9.795 L11.4162,9.873 L10.326,13.182 L0.7089,13.182 L0.7089,12.832 L1.1761,12.832 C1.7212,12.832 1.9938,12.676 2.2274,12.326 C2.3442,12.131 2.4221,11.664 2.4221,10.963 L2.4221,2.67 C2.4221,1.891 2.3442,1.385 2.1495,1.19 C1.9159,0.918 1.5655,0.762 1.0593,0.762 L0.631,0.762 L0.631,0.45 L6.1988,0.45 L6.1988,0.762 C5.5369,0.762 5.1086,0.801 4.8361,0.956 C4.5635,1.073 4.4078,1.268 4.291,1.463 C4.1742,1.657 4.1352,2.125 4.1352,2.864 L4.1352,11.041 C4.1352,11.547 4.1742,11.936 4.291,12.131 C4.3688,12.248 4.4857,12.365 4.6414,12.442 C4.7971,12.52 5.4201,12.52 6.2378,12.52 L7.0165,12.52 C7.9898,12.52 8.6518,12.442 9.0411,12.287 C9.4305,12.131 9.7809,11.897 10.1313,11.508 C10.4817,11.119 10.7932,10.612 11.1047,9.795" id="Fill-52" fill="#FFFFFF"></path>
                            <path d="M22.357,0.45 L22.357,0.801 C21.9287,0.879 21.7341,1.034 21.5005,1.229 C21.189,1.541 20.8775,2.008 20.6439,2.631 L16.2442,13.533 L15.8548,13.533 L11.1826,2.514 C10.9489,1.93 10.7543,1.618 10.6764,1.463 C10.5207,1.268 10.326,1.112 10.0924,0.995 C9.8587,0.879 9.703,0.801 9.3137,0.801 L9.3137,0.45 L14.1417,0.45 L14.1417,0.801 C13.5576,0.84 13.3629,0.956 13.2072,1.112 C13.0515,1.268 12.9347,1.424 12.9347,1.657 C12.9347,1.969 13.0904,2.475 13.3629,3.137 L16.5557,10.574 L19.5537,3.215 C19.8262,2.475 19.982,1.969 19.982,1.696 C19.982,1.502 19.9041,1.346 19.7094,1.19 C19.5147,1.034 19.1643,0.918 18.736,0.84 C18.6971,0.84 18.6582,0.84 18.5803,0.801 L18.5803,0.45 L22.357,0.45 Z" id="Fill-54" fill="#FFFFFF"></path>
                            <path d="M30.2609,13.182 L25.4719,2.592 L25.4719,11.002 C25.4719,11.781 25.5497,12.248 25.7444,12.442 C25.978,12.715 26.2506,12.832 26.7567,12.832 L27.224,12.832 L27.224,13.182 L22.7464,13.182 L22.7464,12.832 L23.4862,12.832 C24.0313,12.832 24.4206,12.676 24.6153,12.365 C24.771,12.17 24.81,11.703 24.81,11.002 L24.81,2.631 C24.81,2.086 24.7321,1.657 24.6153,1.424 C24.5374,1.229 24.3817,1.112 24.1481,0.956 C23.9145,0.84 23.603,0.762 23.0968,0.762 L23.0968,0.45 L26.4063,0.45 L30.9618,10.418 L35.4783,0.45 L38.9046,0.45 L38.9046,0.801 L38.4763,0.801 C37.9312,0.801 37.6197,0.956 37.4251,1.268 C37.2693,1.463 37.1915,1.93 37.1915,2.631 L37.1915,11.002 C37.1915,11.781 37.2693,12.248 37.464,12.442 C37.6976,12.715 38.0091,12.832 38.5153,12.832 L38.8657,12.832 L38.8657,13.182 L33.7262,13.182 L33.7262,12.832 L34.1155,12.832 C34.6606,12.832 35.05,12.676 35.2447,12.365 C35.4004,12.17 35.4394,11.703 35.4394,11.002 L35.4394,2.475 L30.5724,13.182 L30.2609,13.182 Z" id="Fill-55" fill="#FFFFFF"></path>
                            <path d="M43.0318,6.291 L48.911,6.291 L48.911,2.67 C48.911,2.008 48.8721,1.579 48.7942,1.385 C48.7164,1.229 48.5995,1.112 48.4049,0.995 C48.1323,0.84 47.9376,0.762 47.6262,0.762 L47.1979,0.762 L47.1979,0.45 L52.3763,0.45 L52.3763,0.801 L51.948,0.801 C51.6365,0.801 51.4418,0.879 51.2082,1.034 C51.0135,1.151 50.8578,1.268 50.8189,1.502 C50.741,1.696 50.7021,2.125 50.7021,2.748 L50.7021,11.002 C50.7021,11.664 50.741,12.053 50.8189,12.287 C50.8967,12.442 51.0135,12.559 51.2082,12.676 C51.4808,12.832 51.7144,12.91 51.9869,12.91 L52.4152,12.91 L52.4152,13.26 L47.2368,13.26 L47.2368,12.91 L47.6651,12.91 C48.1713,12.91 48.4827,12.754 48.7164,12.442 C48.8721,12.248 48.95,11.781 48.95,11.002 L48.95,6.991 L43.0318,6.991 L43.0318,10.963 C43.0318,11.625 43.0707,12.014 43.1486,12.248 C43.2265,12.404 43.3433,12.52 43.5379,12.637 C43.8105,12.793 44.0052,12.871 44.3166,12.871 L44.7839,12.871 L44.7839,13.221 L39.6833,13.221 L39.6833,12.871 L40.1116,12.871 C40.6178,12.871 40.8514,12.715 41.1239,12.404 C41.2797,12.209 41.3575,11.742 41.3575,10.963 L41.3575,2.67 C41.3575,2.008 41.3186,1.579 41.2407,1.385 C41.1629,1.229 41.0461,1.112 40.8514,0.995 C40.5788,0.84 40.3842,0.762 40.0727,0.762 L39.6444,0.762 L39.6444,0.45 L44.7839,0.45 L44.7839,0.801 L44.3166,0.801 C44.0052,0.801 43.8105,0.879 43.5769,1.034 C43.3822,1.151 43.2654,1.268 43.1875,1.502 C43.1096,1.696 43.0707,2.125 43.0707,2.748 L43.0318,6.291 Z" id="Fill-56" fill="#FFFFFF"></path>
                        </g>
                    </g>
                </g>
            </g>
        </g>
    </g>
</svg>