<?xml version="1.0" encoding="UTF-8"?>
<svg width="75px" height="17px" viewBox="0 0 75 17" version="1.1" xmlns="http://www.w3.org/2000/svg" xmlns:xlink="http://www.w3.org/1999/xlink">
    <!-- Generator: Sketch 51.3 (57544) - http://www.bohemiancoding.com/sketch -->
    <title>Group 70@2x</title>
    <desc>Created with Sketch.</desc>
    <defs></defs>
    <g id="1.-Desktop" stroke="none" stroke-width="1" fill="none" fill-rule="evenodd">
        <g id="Acceuil" transform="translate(-571.000000, -548.000000)">
            <g id="Accroche" transform="translate(158.000000, 283.124176)">
                <g id="Logos-références" transform="translate(161.000000, 261.162824)">
                    <g id="Group-2" transform="translate(0.000000, 2.713000)">
                        <g id="Group-70" transform="translate(252.000000, 1.000000)">
                            <polygon id="Clip-59" points="0.3493 0.17354 75.01058 0.17354 75.01058 17.012 0.3493 17.012"></polygon>
                            <path d="M9.6668,6.959 C9.5568,6.844 9.4802,6.558 9.4592,6.514 C9.2193,6.698 9.4592,7.04 9.6668,6.959 Z M9.8605,6.904 C10.1118,6.807 10.006,6.325 9.6717,6.394 C9.6917,6.433 9.844,6.73 9.8605,6.904 Z M9.575,6.291 C9.8179,6.242 10.1099,6.488 10.3912,6.618 C10.127,7.003 9.5071,7.033 9.2587,7.17 C9.2029,7.084 9.0155,6.401 9.575,6.291 Z M7.4002,6.534 C7.3825,6.576 7.3049,6.855 7.1985,6.969 C7.4002,7.048 7.6377,6.714 7.4002,6.534 Z M7.1939,6.417 C6.8673,6.349 6.7634,6.82 7.0094,6.915 C7.0251,6.743 7.1744,6.455 7.1939,6.417 Z M7.5918,7.174 C7.3501,7.04 6.7494,7.011 6.4913,6.637 C6.7659,6.512 7.05,6.271 7.2877,6.32 C7.8295,6.427 7.6472,7.089 7.5918,7.174 Z M6.048,2.918 C5.2046,4.504 8.1166,3.783 7.7389,5.132 C8.4002,3.555 5.751,4.375 6.048,2.918 Z M5.5359,1.287 C5.3806,0.763 4.5211,0.996 4.6953,1.206 C4.7771,1.304 5.1126,1.011 5.5359,1.287 Z M5.1645,3.128 C5.2015,2.629 5.5204,2.188 5.5158,1.68 C5.5103,0.933 4.6528,1.639 4.5225,1.325 C4.1794,0.491 6.7134,0.071 6.6839,1.547 C6.667,2.324 6.4518,3.184 7.06,3.273 L7.5208,1.391 L8.0053,4.092 C7.5637,3.536 6.6908,3.765 6.4949,2.875 C6.3513,2.229 7.161,0.607 5.3764,0.726 C7.4421,1.355 4.2262,3.106 6.1364,4.225 C6.6477,4.525 6.8274,5.058 6.5981,5.288 C6.5677,4.53 5.8144,4.435 5.5374,4.114 C5.2909,3.825 5.1883,3.567 5.165,3.324 L4.4537,2.985 L5.1645,3.128 Z M7.585,5.867 C7.2996,5.864 6.9696,6.183 6.9092,5.977 C6.8641,5.816 7.1574,5.551 7.5404,5.523 C7.2164,5.432 6.6813,5.733 6.5848,6.06 C6.4822,6.07 6.3037,5.937 6.3037,5.937 C6.3923,6.688 7.0928,6.028 7.3598,6.028 C7.599,6.028 8.3494,6.569 8.3641,5.897 C8.1008,6.204 7.9154,5.867 7.585,5.867 Z M9.0196,6.219 C9.3994,6.219 9.4559,6.042 9.7446,6.042 C10.0319,6.042 10.1368,6.231 10.3685,6.231 C10.5974,6.231 10.7373,6.065 10.6314,5.92 C10.4831,6.164 10.217,5.833 10.0216,5.833 C9.7221,5.833 9.5942,5.956 9.3994,6.053 C9.1811,6.164 8.9717,6.058 9.0535,5.93 C8.8842,5.928 8.777,5.722 9.0647,5.478 C8.5574,5.534 8.638,6.219 9.0196,6.219 Z M9.4236,8.908 C9.4091,8.946 9.2981,8.991 9.072,9.076 C9.0412,9.127 8.9717,9.211 8.9024,9.252 C9.1713,9.327 9.4711,9.054 9.4236,8.908 Z M9.1598,9.863 C9.6163,10.672 8.7069,10.945 8.9865,12.195 C9.1772,13.042 9.6045,12.964 9.6424,13.591 C9.6837,14.217 9.3037,14.647 9.5807,15.063 C9.8542,15.475 10.3963,15.659 10.2219,16.186 C10.5043,15.668 9.9668,15.258 9.8261,14.689 C9.7203,14.252 10.3806,13.862 10.1925,13.293 C10.1148,13.06 10.023,12.914 9.8685,12.603 L9.5447,11.95 C9.1528,11.122 9.9363,10.527 9.1598,9.863 Z M7.5543,14.285 C8.1335,13.56 7.7617,13.915 7.9704,12.939 C8.0992,12.336 8.2825,12.356 8.4772,11.863 C8.6462,11.434 8.5641,10.479 7.8975,10.022 C8.2565,10.643 8.2344,11.078 8.085,11.593 C7.936,12.105 7.725,12.159 7.4989,12.741 C7.3297,13.179 7.4177,13.613 7.4177,13.613 L7.5543,14.285 Z M7.147,14.593 C7.147,13.958 6.9526,14.001 6.9526,13.23 C6.9526,12.391 7.67,12.165 7.73,11.504 C7.8128,10.612 6.9282,10.588 7.2123,9.34 C6.8366,10.99 7.3696,10.859 7.3696,11.449 C7.3696,12.039 6.4306,12.112 6.4306,13.147 C6.4306,13.757 6.8055,13.925 6.8055,14.575 C6.8055,15.225 6.384,15.402 6.384,15.402 C6.5422,15.42 7.147,15.301 7.147,14.593 Z M7.3442,8.662 C7.3578,8.771 7.8348,8.953 7.8348,8.953 C7.8348,8.953 7.7175,9.043 7.4718,8.955 C7.5986,9.173 7.9124,9.17 7.9124,9.17 C7.9124,9.17 7.889,9.299 7.5453,9.207 C7.6286,9.451 7.9937,9.511 8.1102,9.476 C8.2344,9.439 8.3787,9.048 8.3228,8.928 C8.3228,8.928 7.8205,8.691 7.3442,8.662 Z M7.5625,8.304 C7.5758,8.584 7.9824,8.66 8.1489,8.636 C7.6382,8.52 7.6675,8.236 7.843,8.178 C7.8511,8.063 7.5531,8.084 7.5625,8.304 Z M7.8299,9.642 C7.7721,9.642 7.7597,9.662 7.7597,9.673 C7.7562,9.694 7.7865,9.72 7.8295,9.732 C7.8325,9.732 8.2344,9.827 8.473,9.814 C8.7092,9.827 9.1119,9.732 9.1159,9.732 C9.1587,9.72 9.1879,9.694 9.186,9.673 C9.1837,9.662 9.1718,9.642 9.113,9.642 C9.1026,9.642 8.6898,9.654 8.473,9.654 C8.2549,9.654 7.8428,9.642 7.8299,9.642 Z M5.6583,10.413 C5.6319,9.656 6.1083,8.68 6.3122,8.571 C4.8196,9.37 5.4679,10.702 5.0477,11.469 C4.3997,12.647 3.2579,12.002 2.8782,12.715 C2.6418,13.158 3.2752,13.179 3.2752,14.131 C3.2752,13.9 3.1932,13.345 3.6268,13.111 L3.4283,13.129 C3.3661,12.905 3.1406,12.976 3.1406,12.976 C3.369,12.59 4.2587,12.857 5.5136,11.789 C6.6242,10.845 6.5506,9.345 6.865,8.776 L6.5653,9.076 C6.1224,9.551 6.1047,10.326 5.5447,11.225 C5.6515,11.053 5.6729,10.818 5.6583,10.413 Z M2.9925,13.712 C2.9261,14.127 2.7417,14.031 2.7093,14.013 C2.6771,13.995 2.664,13.95 2.6887,13.919 C2.7175,13.884 2.7218,13.837 2.6817,13.803 C2.6412,13.77 2.3422,13.857 2.3977,14.152 C2.4236,14.297 2.5694,14.445 2.7968,14.417 C3.0207,14.389 3.2374,14.188 2.9925,13.712 Z M5.2898,9.024 C5.0357,9.427 4.6078,9.803 4.071,9.68 C3.5342,9.556 2.7096,9.381 2.4675,10.186 C3.0907,9.494 4.3044,11.141 5.2898,9.024 Z M1.58,10.553 C1.882,10.781 2.287,10.409 2.0956,10.034 C1.3768,10.43 1.1378,9.575 0.6751,10.137 C0.8495,10.088 1.0254,10.189 1.3308,10.418 L1.58,10.553 Z M4.4635,9.024 C4.9859,8.993 5.3911,8.835 5.417,8.445 C5.2909,8.59 4.984,8.787 4.445,8.82 C3.91,8.853 3.0291,8.195 2.6917,9.164 C3.452,8.743 4.1591,9.68 4.6697,9.23 L4.4635,9.024 Z M4.3863,7.668 C3.6438,7.806 2.5694,6.84 2.3682,6.606 C2.2472,6.465 2.133,6.324 1.9006,6.29 C1.8864,6.286 1.8898,6.306 1.8926,6.33 C1.895,6.363 1.9006,6.412 1.8802,6.422 C1.8671,6.429 1.8336,6.422 1.751,6.351 C1.668,6.278 1.539,6.244 1.3917,6.256 C1.2636,6.266 1.1327,6.311 1.0474,6.375 C0.9609,6.439 0.9308,6.51 0.9609,6.576 C1.0052,6.678 1.1499,6.6 1.3149,6.588 C1.4481,6.581 1.5997,6.644 1.7343,6.687 C1.8417,6.719 1.9168,6.838 2.0262,6.957 C2.5725,7.549 3.6491,7.976 4.3863,7.668 Z M0.6151,7.225 C0.6151,7.225 1.2756,6.595 1.841,7.158 C1.3777,6.698 0.8103,6.583 0.6151,7.225 Z M3.569,4.131 C2.3993,3.932 2.6865,3.268 2.8969,2.903 C2.1957,2.849 2.1594,4.443 3.569,4.131 Z M13.624,7.937 C13.8939,7.956 14.7327,6.984 14.4436,6.869 C14.1565,6.751 14.177,7.725 13.624,7.937 Z M9.3006,8.683 C9.2191,8.742 9.0216,8.798 8.8675,8.901 C8.8511,8.928 8.8252,9.021 8.7917,9.044 C8.9488,9.077 9.288,8.85 9.3006,8.683 Z M5.8466,5.904 C4.5266,6.121 5.2851,4.533 4.268,4.465 C4.8265,4.731 4.5934,5.079 4.6786,5.632 C4.7821,6.297 5.6128,6.382 5.8466,5.904 Z M10.5614,7.288 C10.5942,7.483 10.9392,7.077 11.5998,7.359 C11.3739,7.031 10.5117,6.999 10.5614,7.288 Z M12.5229,4.992 C12.8424,4.91 13.0399,5.19 13.289,5.116 C13.4279,5.076 13.4315,4.918 13.3207,4.877 C13.3207,4.877 13.7426,4.442 13.6015,4.199 C13.2547,4.903 12.5899,4.877 12.5229,4.992 Z M11.4423,3.614 C11.7987,3.093 12.1255,3.182 12.2951,2.629 C12.0557,3.07 11.4438,3.162 11.1984,3.525 C10.7706,4.159 11.342,5.079 10.4433,5.345 C11.5762,5.373 11.0331,4.066 11.4423,3.614 Z M10.4119,4.176 C10.2575,4.593 9.828,4.709 9.62,5.073 C9.7365,5.076 10.3444,4.841 10.5749,4.454 C10.7961,4.079 10.5923,3.079 11.305,2.811 C12.0486,2.532 12.8279,2.12 11.9482,1.224 C13.2976,1.566 12.5387,3 12.3791,3.211 C12.2272,3.406 11.7302,3.798 11.7302,4.43 C11.7302,4.896 11.3092,5.429 10.9813,5.494 C11.3279,5.633 11.8439,4.843 11.8439,4.843 L13.5274,2.676 L12.5592,3.174 C12.5592,3.174 12.8247,2.946 12.8247,2.188 C12.8247,1.118 11.6709,0.927 11.6831,1.259 C11.6913,1.479 12.0749,1.635 12.0861,2 C12.0982,2.364 11.5857,2.57 11.186,2.686 L11.0081,2.087 L11.0081,2.76 C10.3544,3.097 10.5749,3.738 10.4119,4.176 Z M10.8757,6.81 C10.9442,6.959 11.2234,6.628 11.6442,6.755 C11.4411,6.617 10.8393,6.618 10.8757,6.81 Z M8.9985,2.151 C9.4068,3.469 8.4587,3.467 8.4612,4.117 C8.2946,3.355 9.2124,2.859 8.9985,2.151 Z M9.0056,4.861 C8.3405,5.163 8.4788,4.375 8.6615,4.171 C8.6615,4.171 8.9782,4.614 9.4232,4.798 C8.83,3.818 9.4993,3.843 9.389,2.556 C9.3337,1.905 8.9865,1.69 8.9958,1.093 C9.0081,0.375 10.0693,0.186 10.0802,0.464 C10.0876,0.661 9.3081,0.683 9.2957,1.425 C9.2854,2.12 10.0647,2.288 10.0464,2.963 C10.034,3.405 9.2381,3.813 9.7347,4.645 L10.8645,1.467 L9.9995,2.442 C9.7221,2.098 9.5033,2.066 9.5033,1.448 C9.5033,0.827 10.196,0.739 10.196,0.451 C10.196,0.219 9.8491,0.186 9.5966,0.174 C9.2048,0.157 8.5127,0.494 8.5127,1.214 C8.5127,1.934 8.9997,2.298 8.5159,2.973 L8.0968,2.343 L8.4073,3.149 C8.4073,3.149 8.1241,3.479 8.1241,4.066 C8.1241,5.218 9.072,5.324 9.0056,4.861 Z M15.0438,13.034 L14.8777,12.864 C15.1078,12.909 15.3866,12.727 15.5532,12.628 C15.242,12.812 14.838,12.701 14.5595,12.479 L14.708,12.717 C13.968,12.52 14.0495,11.327 13.6104,10.944 C13.2336,10.613 12.8077,10.793 12.236,10.354 C11.6709,9.921 11.4376,8.776 10.3908,8.07 C11.8143,7.667 12.2814,10.239 13.6442,10.239 C14.3237,10.239 14.683,9.665 15.2956,9.569 C15.7251,9.503 16.1942,9.54 16.268,9.927 C16.3441,10.333 16.1922,10.653 16.1922,10.653 C16.1922,10.653 16.3997,10.432 16.3997,10.038 C16.3997,9.261 15.622,9.271 15.3574,9.292 C14.7556,9.341 14.6095,9.728 13.8583,9.556 C12.9024,9.335 12.7122,7.674 11.5991,7.57 C12.18,7.086 12.7373,7.961 13.2627,7.954 C13.6442,7.947 13.7726,7.639 14.0232,7.024 C14.3124,6.312 14.7158,6.893 15.0371,7.192 C15.362,7.489 15.8367,7.376 16.1141,7.135 C16.0397,7.364 15.7837,7.359 15.8836,7.51 C15.9275,7.578 15.9945,7.546 16.0665,7.482 C16.4309,7.145 16.5176,6.261 16.1253,6.049 C16.4248,7.454 15.1835,7.125 15.218,6.936 C15.4482,7.014 15.8394,6.781 15.6785,6.781 C14.5976,6.781 14.7628,6.259 14.1727,6.314 C14.1727,6.314 13.6813,6.291 13.3864,7.081 C13.1976,7.587 12.6904,6.885 12.0909,7.081 C12.4928,6.549 12.7946,6.995 13.1244,6.774 C13.4544,6.549 13.8367,5.859 14.6194,6.205 L15.0371,5.839 L14.7587,6.294 C15.5719,6.829 16.0437,6.779 15.9642,5.773 C17.0164,6.386 16.4362,7.797 15.6399,7.787 C15.1693,7.783 15.0088,7.544 14.7378,7.439 C14.5464,7.367 14.3934,7.514 14.2139,7.702 L14.9694,7.999 L14.0537,7.866 C13.7758,8.139 13.3621,8.38 12.7787,8.119 L12.8931,8.334 L16.1108,8.334 L13.9087,9.315 C14.4973,9.437 15.222,8.715 16.0531,9.214 C16.854,9.695 16.4923,10.789 16.1577,10.786 C15.8585,10.783 16.4309,9.803 15.6127,9.824 C15.3123,9.831 15.072,10.077 14.7798,10.308 L15.0487,10.975 L14.6069,10.435 C14.3698,10.605 14.1155,10.734 13.8275,10.696 L15.3496,11.594 L14.3124,11.594 C14.3001,11.848 14.3237,12.026 14.4267,12.246 L14.5311,12.203 C14.6118,12.37 15.0797,12.65 15.7375,12.537 C15.4928,13.483 14.1231,13.217 13.8625,12.951 L13.8766,13.292 C13.2772,11.816 12.8166,11.728 11.9246,11.728 L14,13.823 L13.5045,13.719 C13.654,14.307 12.9495,15.332 12.4449,15.39 C12.2482,15.412 12.8012,15.002 12.8012,14.417 C12.8012,13.828 12.1456,13.65 11.8674,13.42 C11.3588,12.999 11.1531,12.14 10.9564,11.809 C11.314,11.995 11.7373,12.69 12.0477,13.044 C12.3601,13.397 13.0204,13.657 13.0204,14.211 C13.0204,14.763 12.8138,14.957 12.7896,15.024 C12.9968,15.024 13.6442,13.891 13.0317,13.35 C12.7285,13.079 12.5355,12.909 12.2239,12.652 C11.8139,12.311 11.4271,11.86 11.1576,11.462 C10.5834,10.619 9.6668,10.016 10.0976,9.333 C9.4325,10.388 10.6477,11.181 10.7863,12.007 C10.9256,12.833 11.3713,13.719 11.8471,13.837 C11.7637,13.86 11.6851,13.868 11.6107,13.868 L11.4761,13.856 C10.7048,13.708 10.0599,11.178 10.0599,11.54 C10.0599,12.204 11.2176,15.224 11.2176,15.224 L10.1663,14.555 C9.9964,15.247 10.7553,15.279 10.6827,15.907 C10.5974,16.617 9.7727,16.551 9.7885,16.389 C9.7986,16.287 10.1143,16.394 10.1143,16.226 C10.1143,16.062 9.6042,15.962 9.389,15.71 C9.2567,15.556 9.142,15.43 9.0962,14.84 L8.7747,15.264 C8.7747,15.264 9.164,14.249 9.2201,13.984 C9.2733,13.724 8.6644,13.693 8.4857,13.173 L8.3656,15.755 L7.5879,14.701 C7.4398,15.859 5.8056,15.781 5.7008,15.661 C6.8881,14.782 6.3139,14.387 6.0186,13.639 L5.3911,14.013 L5.9372,13.396 C5.9013,13.258 5.8898,13.081 5.9028,12.916 C5.97,12.002 7.3018,12.085 6.5024,11.181 L4.3502,14.633 L4.6226,12.775 C3.3463,13.232 3.7884,13.297 3.4233,14.131 C3.1253,14.812 2.5172,14.628 2.3346,14.338 C2.0646,13.918 2.3938,13.601 2.7467,13.617 C2.9593,13.442 2.3465,13.168 2.5917,12.616 C2.9492,11.811 3.9568,12.16 4.4684,11.49 L3.209,11.623 L4.6156,11.233 C4.7154,11.003 4.7746,10.691 4.7771,10.266 L2.1014,11.741 L2.9161,10.399 C1.4219,11.633 1.0614,10.085 0.3493,10.208 C0.533,9.381 1.2259,9.853 1.5318,9.853 C1.8392,9.853 2.2858,9.307 2.4415,9.187 L0.8412,8.334 L4.8297,8.334 C5.1295,8.334 5.2978,8.231 5.1523,8.061 C4.9631,7.834 4.2262,8.102 3.3924,8.164 C2.8847,8.2 2.579,8.005 2.3277,7.774 L1.6258,7.987 L2.2203,7.672 C1.8108,7.266 1.4981,6.849 0.533,7.434 C0.2338,6.659 0.9549,5.996 1.6025,5.98 C2.5233,5.956 2.7023,7.035 3.4154,6.659 L2.1944,5.241 L4.1766,6.215 L3.923,5.465 L3.0694,5.241 L3.9004,5.309 C3.6692,4.535 2.799,4.672 2.4424,4.295 C1.6688,3.474 2.5058,2.425 3.1388,2.718 C2.7023,3.649 3.5084,4.047 4.1766,3.914 L3.8534,2.83 L6.4133,5.42 C5.8264,5.863 5.1739,5.471 4.8509,4.511 C4.5413,3.593 3.91,4.629 2.9403,4.271 C3.453,4.461 4.1209,4.187 4.2587,5.294 C4.349,6.017 4.7081,6.678 5.4935,6.498 C5.1885,6.954 4.4569,6.388 3.9933,7.046 C4.8003,6.957 5.0936,7.63 5.6525,8.014 C4.9616,7.537 5.4608,7.043 4.609,6.931 C4.9181,6.972 5.1577,7.002 5.4566,6.903 C5.7658,6.802 5.9186,6.592 5.8966,6.287 C6.2176,6.415 6.2469,6.719 6.0982,6.917 C5.9485,7.115 5.6506,7.225 5.6425,7.395 C5.6425,7.395 5.6515,7.364 5.8573,7.265 C5.7027,7.471 5.8032,7.753 5.9736,7.937 C5.9645,7.814 5.9649,7.623 6.037,7.587 C6.1665,7.886 6.458,8.044 6.6464,7.999 C6.3037,7.636 6.5397,7.328 6.5397,7.328 C6.3907,7.324 6.2389,7.538 6.2389,7.538 C6.2389,7.538 6.1364,7.196 6.4968,7.052 C6.4683,7.002 6.4923,6.942 6.4923,6.942 C6.7856,7.239 7.3071,7.224 7.4531,7.322 C7.4531,7.322 6.6908,7.213 6.7823,7.631 C6.8677,8.023 8.0559,7.762 7.9059,6.562 C7.9059,6.562 8.1116,6.54 8.1871,6.615 C8.2645,6.688 8.1719,6.909 8.1719,6.909 L8.3236,6.978 C8.3236,6.978 8.1626,7.578 8.1997,7.694 C8.2216,7.76 8.4924,7.765 8.5349,7.767 C8.5942,7.771 8.5574,7.828 8.5316,7.828 L8.104,7.828 C8.0415,7.833 7.8532,8.057 8.0315,8.096 C8.0315,8.096 8.2522,8.153 8.4761,8.153 C8.7008,8.153 8.9206,8.096 8.9206,8.096 C8.9206,8.096 8.8842,8.275 8.4714,8.275 C8.0605,8.275 7.8975,8.204 7.8975,8.204 C7.802,8.461 8.3453,8.72 8.4002,8.737 C8.4565,8.755 8.5444,8.749 8.5627,8.737 C8.5811,8.723 8.9581,8.425 8.9581,8.425 L8.844,8.607 C9.3495,8.49 9.2745,8.236 9.1003,8.178 C9.0933,8.063 9.3904,8.084 9.381,8.304 C9.3688,8.584 8.6519,8.739 8.5627,8.928 C8.5054,9.048 8.6514,9.439 8.7747,9.476 C8.892,9.511 9.1713,9.507 9.3123,9.43 C9.3547,9.407 9.7365,8.693 9.7365,8.516 C9.7365,8.34 9.3435,7.476 9.3435,7.476 C9.4185,7.253 9.7541,7.311 10.0604,7.115 C9.5617,7.632 9.8999,7.698 10.2662,7.715 C9.9887,7.948 9.7961,8.101 9.9059,8.461 C11.5185,8.815 11.198,10.681 12.3653,11.078 C11.4376,11.218 10.6875,10.043 10.6011,9.505 C10.5666,10.079 10.7765,10.589 11.2164,11.051 C11.5991,11.45 12.2632,11.388 12.8021,11.39 C13.7587,11.399 13.4347,12.63 14.2346,12.907 C14.2346,12.907 14.5214,13.034 15.0438,13.034 Z M13.968,5.009 C14.1174,5.96 12.1255,5.603 11.8889,6.375 C12.2712,5.131 13.7703,5.923 13.968,5.009 Z M12.1681,6.774 C12.3712,6.184 13.2848,6.199 13.6757,5.94 C13.9493,5.759 14.2149,5.575 14.2273,4.711 C14.2376,3.971 14.5852,3.775 14.7922,3.709 C14.7922,3.498 14.4731,3.64 14.2077,3.858 C14.5898,2.909 15.4004,3.704 15.4004,3.704 C14.9204,2.873 14.2431,3.259 13.9963,3.669 C13.7506,4.082 13.9332,5.016 13.4258,5.247 C12.9209,5.48 12.6537,5.054 12.2994,5.156 C11.7812,5.304 11.768,5.989 11.2485,5.767 C11.6461,5.513 11.6283,5.274 11.894,4.984 C12.4476,4.379 13.3551,5.043 13.5556,3.331 L13.6467,3.656 C14.6038,2.369 15.7076,3.496 15.5453,3.848 C14.2194,3.604 14.4973,4.656 14.3698,5.364 L15.3375,5.364 L12.1681,6.774 Z" id="Fill-58" fill="#FFFFFF"></path>
                            <path d="M66.5405,1.186 C67.2472,1.186 67.7522,1.691 67.7522,2.381 C67.7522,3.071 67.2472,3.576 66.5405,3.576 C65.8333,3.576 65.3287,3.071 65.3287,2.381 C65.3287,1.691 65.8333,1.186 66.5405,1.186 Z M65.4129,4.754 L67.6509,4.754 L67.6509,12.496 L65.4129,12.496 L65.4129,4.754 Z M55.7658,1.186 C56.4726,1.186 56.9777,1.691 56.9777,2.381 C56.9777,3.071 56.4726,3.576 55.7658,3.576 C55.0589,3.576 54.5541,3.071 54.5541,2.381 C54.5541,1.691 55.0589,1.186 55.7658,1.186 Z M54.6382,4.754 L56.8768,4.754 L56.8768,12.496 L54.6382,12.496 L54.6382,4.754 Z M45.4756,12.189 C47.0243,12.189 47.2939,10.086 47.2939,8.302 C47.2939,6.316 46.7045,4.936 45.5939,4.936 C44.87,4.936 44.1966,5.508 44.0789,6.618 L44.0789,10.692 C44.0789,11.449 44.7184,12.189 45.4756,12.189 Z M45.9135,12.661 C45.0214,12.661 44.3987,12.257 44.0789,11.735 L44.0789,12.493 L41.8403,12.493 L41.8403,0.207 L44.0789,0.207 L44.0789,5.458 C44.4159,4.868 45.1729,4.498 46.149,4.498 C48.2193,4.498 49.6161,5.928 49.6161,8.268 C49.6161,10.944 48.135,12.661 45.9135,12.661 Z M50.7944,12.493 L53.0324,12.493 L53.0324,0.207 L50.7944,0.207 L50.7944,12.493 Z M38.0183,12.492 L40.2564,12.492 L40.2564,4.751 L38.0183,4.751 L38.0183,10.439 C38.0183,11.281 37.1935,12.021 36.369,12.021 C35.5104,12.021 35.039,11.432 35.039,10.237 C35.039,8.908 35.9993,4.751 35.9993,4.751 L33.761,4.751 C33.761,4.751 32.8182,8.908 32.8182,10.17 C32.8182,11.684 33.8952,12.66 35.4945,12.66 C36.7397,12.66 37.6145,12.089 38.0183,11.399 L38.0183,12.492 Z M27.2143,12.664 C29.9912,12.664 31.893,10.678 31.893,7.817 C31.893,4.434 29.0826,2.044 25.9856,2.044 C22.62,2.044 20.1793,4.417 20.1793,7.733 C20.1793,8.961 20.4993,10.089 21.0883,11.065 L21.4245,10.896 C21.0206,10.156 20.7514,9.096 20.7514,8.119 C20.7514,5.309 22.7714,3.727 25.3125,3.727 C27.8198,3.727 29.7046,5.477 29.7046,8.086 C29.7046,10.493 28.3757,12.226 26.2383,12.226 L26.2383,6.306 L23.9997,6.304 L23.9997,16.079 L26.2383,16.079 L26.2383,12.614 C26.5411,12.647 26.8439,12.664 27.2143,12.664 Z M62.0686,4.501 C59.5444,4.501 58.1474,6.286 58.1474,8.574 C58.1474,11.099 59.5776,12.664 62.0853,12.664 C63.6337,12.664 64.3238,11.94 64.3238,11.94 L64.0542,11.688 C64.0542,11.688 63.4483,12.159 62.6403,12.159 C61.0753,12.159 60.5534,10.527 60.5534,8.557 C60.5534,6.286 61.092,4.972 62.4891,4.972 C63.2802,4.972 63.8021,5.359 63.8021,5.359 L64.0717,5.074 C64.0717,5.074 63.4148,4.501 62.0686,4.501 Z M72.1323,1.674 C73.5123,1.674 74.253,2.313 74.253,2.313 L73.9499,2.566 C73.9499,2.566 73.3783,2.078 72.3175,2.078 C71.5436,2.078 71.0049,2.616 71.0049,3.374 C71.0049,4.333 71.9303,5.208 73.0244,6.336 C73.984,7.329 75.0106,8.456 75.0106,9.82 C75.0106,11.586 73.4285,12.664 71.4261,12.664 C70.4589,12.664 69.7717,12.425 69.1593,11.916 L69.4286,11.597 C69.8658,11.984 70.5337,12.26 71.3416,12.26 C72.3509,12.26 73.1089,11.739 73.1089,10.863 C73.1089,9.937 72.0988,8.861 71.1224,7.85 C70.0121,6.689 68.9345,5.511 68.9345,4.232 C68.9345,2.667 70.2305,1.674 72.1323,1.674 Z" id="Fill-60" fill="#FFFFFF"></path>
                            <polygon id="Fill-61" fill="#FFFFFF" points="53.8585 14.728 54.0665 14.728 54.6807 16.599 55.3202 14.734 55.5857 14.734 54.7861 16.989 54.5718 16.989 53.9577 15.173 53.3403 16.989 53.1292 16.989 52.3296 14.734 52.6046 14.734 53.2444 16.599"></polygon>
                            <path d="M56.9736,14.929 C56.4617,14.929 56.0971,15.339 56.0971,15.851 C56.0971,16.362 56.4681,16.778 56.9798,16.778 C57.4917,16.778 57.8563,16.369 57.8563,15.857 C57.8563,15.345 57.4853,14.929 56.9736,14.929 M56.9736,17.012 C56.2923,17.012 55.8348,16.478 55.8348,15.857 C55.8348,15.237 56.2985,14.696 56.9798,14.696 C57.6613,14.696 58.1186,15.23 58.1186,15.851 C58.1186,16.471 57.6549,17.012 56.9736,17.012" id="Fill-62" fill="#FFFFFF"></path>
                            <path d="M59.7271,14.968 L59.0361,14.968 L59.0361,15.876 L59.7238,15.876 C60.0597,15.876 60.2997,15.703 60.2997,15.412 C60.2997,15.134 60.0885,14.968 59.7271,14.968 Z M60.3251,16.973 L59.6759,16.103 L59.0361,16.103 L59.0361,16.973 L58.7834,16.973 L58.7834,14.734 L59.7462,14.734 C60.2389,14.734 60.5555,15 60.5555,15.403 C60.5555,15.777 60.2997,15.995 59.9477,16.059 L60.6355,16.973 L60.3251,16.973 Z" id="Fill-63" fill="#FFFFFF"></path>
                            <polygon id="Fill-64" fill="#FFFFFF" points="61.2268 14.734 61.4795 14.734 61.4795 16.74 62.7397 16.74 62.7397 16.973 61.2268 16.973"></polygon>
                            <path d="M64.1148,14.968 L63.5903,14.968 L63.5903,16.74 L64.1148,16.74 C64.681,16.74 65.0424,16.356 65.0424,15.857 C65.0424,15.358 64.681,14.968 64.1148,14.968 M64.1148,16.973 L63.3376,16.973 L63.3376,14.734 L64.1148,14.734 C64.8186,14.734 65.3048,15.217 65.3048,15.851 C65.3048,16.484 64.8186,16.973 64.1148,16.973" id="Fill-65" fill="#FFFFFF"></path>
                            <polygon id="Fill-66" fill="#FFFFFF" points="67.23 14.728 67.4379 14.728 68.052 16.599 68.6917 14.734 68.9572 14.734 68.1576 16.989 67.9433 16.989 67.3291 15.173 66.7118 16.989 66.5007 16.989 65.701 14.734 65.976 14.734 66.6159 16.599"></polygon>
                            <polygon id="Fill-67" fill="#FFFFFF" points="69.5677 16.973 69.8203726 16.973 69.8203726 14.733969 69.5677 14.733969"></polygon>
                            <path d="M71.3843,14.968 L70.8596,14.968 L70.8596,16.74 L71.3843,16.74 C71.9503,16.74 72.3119,16.356 72.3119,15.857 C72.3119,15.358 71.9503,14.968 71.3843,14.968 M71.3843,16.973 L70.6069,16.973 L70.6069,14.734 L71.3843,14.734 C72.088,14.734 72.5742,15.217 72.5742,15.851 C72.5742,16.484 72.088,16.973 71.3843,16.973" id="Fill-68" fill="#FFFFFF"></path>
                            <polygon id="Fill-69" fill="#FFFFFF" points="74.8576 14.965 73.4918 14.965 73.4918 15.729 74.7138 15.729 74.7138 15.959 73.4918 15.959 73.4918 16.743 74.8736 16.743 74.8736 16.973 73.2391 16.973 73.2391 14.734 74.8576 14.734"></polygon>
                        </g>
                    </g>
                </g>
            </g>
        </g>
    </g>
</svg>