<?xml version="1.0" encoding="UTF-8"?>
<svg width="144px" height="26px" viewBox="0 0 144 26" version="1.1" xmlns="http://www.w3.org/2000/svg" xmlns:xlink="http://www.w3.org/1999/xlink">
    <!-- Generator: Sketch 51.3 (57544) - http://www.bohemiancoding.com/sketch -->
    <title>Shape</title>
    <desc>Created with Sketch.</desc>
    <defs></defs>
    <g id="1.-Desktop" stroke="none" stroke-width="1" fill="none" fill-rule="evenodd">
        <g id="Acceuil" transform="translate(-90.000000, -41.000000)" fill="#FFFFFF" fill-rule="nonzero">
            <g id="Logo" transform="translate(40.000000, 41.000000)">
                <g id="Logo-Prezman-2019" transform="translate(50.529450, 0.000000)">
                    <path d="M10.3276078,0.145705183 C10.3492548,0.14577402 10.3708787,0.145888749 10.3924567,0.146072314 C10.4297235,0.1464165 10.4668984,0.146921305 10.5039812,0.147632622 C10.5440085,0.148366884 10.5839439,0.149330603 10.6237872,0.15052378 L10.650173,0.151326879 C10.721118,0.153598503 10.791741,0.156558498 10.8620189,0.160206864 C10.8818715,0.161239421 10.9016782,0.162317869 10.9214388,0.163442208 C10.9966396,0.167755999 11.0714493,0.172826998 11.145891,0.178678151 C11.1797762,0.181339852 11.2135694,0.184162173 11.2472936,0.187122168 C11.3982013,0.200453619 11.5475217,0.21692863 11.6952088,0.236524256 C11.7604028,0.245174784 11.8252747,0.254421901 11.8898246,0.264265605 C12.0098376,0.282576272 12.1287464,0.302952052 12.2465281,0.325347054 C12.273489,0.33048689 12.3004269,0.335718509 12.3272729,0.341064857 C12.4565106,0.366786984 12.5843681,0.394941356 12.7108223,0.425505026 L12.7240727,0.428717424 L12.7372081,0.431929821 C12.7876564,0.444274607 12.8378746,0.45700947 12.8878858,0.470134409 C12.9593829,0.488881044 13.030443,0.508407833 13.1009969,0.528714776 L13.1237251,0.535277246 L13.1379187,0.539407471 C13.3177197,0.591930174 13.4944611,0.64945504 13.668051,0.711844393 C13.6974964,0.72242236 13.7268498,0.733138001 13.7561112,0.743991316 C13.8599752,0.782540089 13.9626891,0.822832735 14.0642297,0.864846308 C14.1896487,0.916726531 14.3132734,0.97124551 14.4350578,1.02828852 C14.4494584,1.03503455 14.4638131,1.04180353 14.4781217,1.04859546 C14.7591873,1.18211648 15.0304071,1.32929018 15.291275,1.48931348 L15.3072169,1.4991113 L15.3153144,1.50411346 C15.4486699,1.58651146 15.5793108,1.67228248 15.7071683,1.76131179 C15.7286773,1.77629533 15.7501172,1.79137065 15.7714651,1.80653776 C15.8271583,1.84609614 15.8823225,1.88627406 15.9369345,1.92707151 C15.9738333,1.95465224 16.010502,1.98248537 16.0469177,2.0106168 L16.0575456,2.01883136 L16.0792846,2.03574234 L16.0985161,2.05081766 C16.1121346,2.06148741 16.1257071,2.072226 16.1392566,2.08298753 C16.1653894,2.10375339 16.1914072,2.12470281 16.21731,2.14576696 C16.2298933,2.15602369 16.2424536,2.16632631 16.2549909,2.17662892 C16.3457885,2.2514319 16.4349069,2.32802464 16.5223459,2.40633831 C16.6638449,2.53311329 16.8009271,2.66445447 16.9334314,2.80020122 C16.9698241,2.83744208 17.0058487,2.87505008 17.0415283,2.91295638 L17.0507529,2.92273124 L17.0694554,2.94273989 L17.0881118,2.96279443 C17.1168901,2.99386291 17.1454153,3.02513789 17.1737335,3.05661939 C17.2333375,3.12290951 17.2919062,3.19011746 17.3494628,3.25824324 L17.3600677,3.27079454 L17.3763777,3.29025249 C17.394298,3.31170672 17.4121263,3.33322978 17.4298625,3.35484463 L17.4301156,3.35514293 L17.4370169,3.36358694 C17.628757,3.59806903 17.808512,3.84299141 17.9757757,4.09759688 L17.982792,4.10826663 L17.9894403,4.11845452 C18.1709896,4.39651049 18.3377012,4.68601636 18.4889309,4.98593958 L18.494475,4.99695352 L18.4993749,5.00675133 C18.511176,5.03029362 18.5228852,5.05392769 18.5345023,5.07760765 C18.5448772,5.09880947 18.5552061,5.12005719 18.565443,5.14132785 C18.6476371,5.31231919 18.7248853,5.48656882 18.7970725,5.66389318 C18.8058831,5.68550803 18.8146017,5.70719171 18.8232513,5.72892129 C18.9584931,6.068357 19.0752856,6.41885254 19.1728235,6.77914589 C19.1861199,6.82822674 19.1990483,6.87746821 19.2116086,6.92691619 C19.2235248,6.97379425 19.2351419,7.02085587 19.246414,7.06805518 C19.2559838,7.10811836 19.2653005,7.14829628 19.2744101,7.18858893 C19.2972303,7.28964178 19.3185782,7.39138301 19.3384309,7.4938126 C19.355293,7.58093742 19.3710969,7.66852115 19.3858196,7.75660968 C19.3897993,7.78054205 19.393733,7.80449736 19.3975517,7.82849856 C19.4063394,7.8834535 19.4146899,7.93856907 19.4226263,7.9938682 C19.4257319,8.015506 19.4287685,8.03716674 19.431736,8.05887337 C19.4435602,8.14517214 19.4543722,8.23190688 19.464103,8.31903169 C19.4664954,8.3403253 19.4687958,8.36164185 19.4710732,8.38298135 C19.4773994,8.44286962 19.4832425,8.50291852 19.4885794,8.56317392 C19.4929042,8.61184175 19.496907,8.6606243 19.5005646,8.70952158 C19.5015768,8.72276125 19.502543,8.73602386 19.5034862,8.74928648 C19.5061777,8.78687153 19.5086621,8.82454837 19.5109626,8.86227109 C19.5145282,8.92080557 19.5176338,8.97952361 19.5202793,9.03837933 C19.5212224,9.05942053 19.5221196,9.08048468 19.5229478,9.10154883 C19.52442,9.13913389 19.5257083,9.17678778 19.5267895,9.21448756 C19.529941,9.32269947 19.5315053,9.43141619 19.5315053,9.54063771 C19.5315053,9.76903919 19.5252022,9.99537556 19.5126649,10.2193944 C19.5090762,10.2835735 19.5049815,10.3475691 19.5003576,10.4113811 C19.4966539,10.4626188 19.4926282,10.5137418 19.4882574,10.5647272 C19.4869231,10.5802844 19.4855659,10.5958186 19.4841626,10.6113758 C19.475145,10.7121303 19.4648161,10.812403 19.453222,10.912125 C19.4512896,10.9288754 19.4493112,10.9456028 19.4472869,10.9623073 C19.4346576,11.0669626 19.420602,11.1710213 19.4051431,11.2744376 C19.4025897,11.2915551 19.3999902,11.3086496 19.3973447,11.3257442 C19.3783892,11.4486872 19.3574324,11.5707584 19.3345202,11.6918887 C19.3289301,11.7213739 19.3232251,11.7508132 19.317405,11.7802067 C19.2921234,11.9078995 19.2646333,12.0345368 19.2349579,12.1600498 C19.2287928,12.186162 19.2225356,12.2122053 19.2161634,12.2382028 C19.2114246,12.257569 19.2066397,12.2768893 19.2017858,12.2961866 C19.1844636,12.3652532 19.1664743,12.4339526 19.1478179,12.5023078 L19.142895,12.5203202 L19.1399274,12.5310129 C19.1169922,12.6140992 19.0930448,12.6966349 19.0681313,12.7786199 C19.0441149,12.8576678 19.0191783,12.936211 18.9933215,13.0142034 C18.9840968,13.0420595 18.9747571,13.0698467 18.9652794,13.0975651 C18.9595743,13.1142696 18.9538233,13.1309511 18.9480492,13.1476097 C18.9410329,13.1678019 18.9339476,13.1879482 18.9268163,13.2080716 C18.9017647,13.2786526 18.875954,13.3487746 18.8493841,13.4184607 C18.8172702,13.5026255 18.7840751,13.5861249 18.7497758,13.668913 C18.7379747,13.6973657 18.7260585,13.7257265 18.7140043,13.7540186 C18.7000867,13.7866933 18.6860081,13.8192532 18.6717455,13.8516755 L18.6648902,13.8672556 L18.6551135,13.8893064 C18.6422081,13.9183098 18.6291877,13.9472214 18.6160063,13.9760412 C18.560244,14.0979517 18.5020203,14.2182101 18.4413582,14.3367705 C18.4302012,14.3585459 18.4189751,14.3802755 18.407657,14.4019592 L18.402159,14.4124683 L18.3922672,14.4312838 C18.3769924,14.4602413 18.3616026,14.489084 18.3460517,14.517835 L18.3377702,14.5331398 L18.3352167,14.5377977 C18.3117754,14.5808439 18.2880121,14.6236605 18.2639036,14.6662248 C18.2539198,14.6838471 18.243867,14.7014465 18.2337911,14.7189999 C18.2210928,14.7410507 18.2083024,14.7630786 18.1954201,14.7849917 C18.1234399,14.9075906 18.0486761,15.0280785 17.9711059,15.1464094 C17.9526795,15.1745409 17.9340691,15.2025576 17.9153207,15.2304595 L17.9001839,15.2528775 C17.8478263,15.3301815 17.7942724,15.4065219 17.7394994,15.4818755 C17.7287334,15.4966985 17.7178984,15.5114984 17.7070174,15.5262755 C17.6536246,15.598738 17.5991276,15.6702597 17.5435034,15.7408407 C17.5337956,15.7531625 17.5240418,15.7654614 17.514265,15.7777374 C17.4839455,15.8157355 17.4533038,15.8534811 17.4223402,15.8909056 C17.4042588,15.9128187 17.3860395,15.9346171 17.3677051,15.9563008 C17.3189362,16.0140781 17.2693621,16.071167 17.2190058,16.1275675 C17.1624615,16.1908517 17.1049509,16.253264 17.0464512,16.3147814 L17.0391128,16.3224912 L17.0213305,16.3410543 C17.0013399,16.361889 16.9812342,16.3826319 16.9610135,16.4032601 C16.9253339,16.439629 16.8893093,16.4756996 16.8529166,16.5114031 C16.8455553,16.518631 16.8381709,16.5258589 16.8307866,16.5330639 L16.811463,16.5518334 C16.7902761,16.5723469 16.7689512,16.5927456 16.7475343,16.6130067 C16.7342608,16.6255809 16.7209414,16.6381093 16.707576,16.6505917 C16.680776,16.6756025 16.6537921,16.7004527 16.6266471,16.7251194 C16.6106132,16.7396669 16.5945332,16.7541686 16.5783842,16.7686244 C16.560533,16.7845717 16.5426127,16.8004271 16.5246234,16.8162138 L16.5136734,16.825828 L16.4932916,16.843588 L16.4728639,16.8612791 L16.4632711,16.8695396 C16.3147098,16.9972783 16.1610876,17.119923 16.0024275,17.2372215 C15.934519,17.2874266 15.8656904,17.3366452 15.7959416,17.384877 C15.7534758,17.4142246 15.710688,17.4432279 15.667555,17.4718412 C15.6305412,17.4963931 15.5932744,17.5206926 15.5557545,17.5446938 C15.5392605,17.5552488 15.5227205,17.565758 15.5061344,17.5761983 L15.4869029,17.5882677 L15.4824631,17.5910212 L15.4635306,17.6028382 L15.4557091,17.6076797 C14.9943135,17.8935143 14.496341,18.1379548 13.9631262,18.3362745 C13.9339798,18.3471278 13.9047184,18.3578205 13.8753651,18.3683985 C13.7212368,18.4238582 13.5642099,18.475509 13.4043306,18.5232131 L13.3937256,18.5263796 L13.3878826,18.5281235 C13.3261622,18.5464112 13.2640048,18.5641253 13.2014333,18.5812428 C13.1760137,18.5881953 13.150525,18.5950561 13.1249443,18.6018021 C13.0327204,18.6261934 12.9395763,18.6493227 12.845535,18.671144 C12.8337338,18.6738746 12.8219097,18.6766051 12.8100625,18.6792897 C12.7844358,18.6851409 12.7587401,18.6908773 12.7329753,18.696522 C12.7065895,18.7023043 12.6801346,18.7079948 12.6535878,18.7135936 C12.5589024,18.7335334 12.4633198,18.7521653 12.3668401,18.7695122 C12.3414205,18.7740784 12.3159318,18.7785528 12.2903741,18.7829125 C12.2040393,18.7977354 12.1170143,18.8115029 12.0292762,18.8242148 C11.9701553,18.8327965 11.9107124,18.8408733 11.8509704,18.8484454 C11.8271381,18.8514743 11.8032827,18.8544343 11.7793583,18.8573254 L11.7478655,18.8610426 C11.7336489,18.8627177 11.7194093,18.8643468 11.7051697,18.865953 C11.6772886,18.8690966 11.6493154,18.8721483 11.6212963,18.8751083 C11.5244715,18.8852503 11.4268646,18.8941533 11.3284525,18.9017712 L11.3008475,18.9038822 L11.2685035,18.9062686 C11.2318578,18.9089073 11.195097,18.9113625 11.1582443,18.9136571 C10.9974218,18.9236385 10.8345289,18.9302468 10.6695656,18.9334133 C10.6384179,18.9340099 10.6072011,18.9344918 10.5758924,18.9348589 L10.5671968,18.9349278 C10.5365091,18.935272 10.5057525,18.9354785 10.4749268,18.9355473 L10.4411566,18.9356161 C10.432438,18.9356161 10.4236964,18.9355932 10.4149318,18.9355702 C10.3864526,18.9354785 10.3577663,18.935272 10.328896,18.9349278 L10.3061909,18.9346295 L10.3040285,18.9346065 C10.2231226,18.9334363 10.1407215,18.9312106 10.0570091,18.9278834 L10.0516031,18.927654 L10.0412742,18.927241 C10.0157626,18.9261855 9.99011285,18.9250152 9.96437112,18.9237762 L9.95689475,18.923409 L9.93501774,18.9222847 L9.93303937,18.9221929 C9.90147758,18.9205408 9.86975476,18.918751 9.8378479,18.9167777 L9.83704275,18.9167318 L9.83389117,18.9165483 C9.71429222,18.9091368 9.59243885,18.8995226 9.46883716,18.8874761 C9.44003587,18.8846767 9.41114257,18.8817396 9.38213424,18.8786649 C9.30051526,18.8700373 9.21820615,18.8603542 9.13529893,18.8495698 L9.11544629,18.8469769 C9.04947018,18.8382805 8.983149,18.8288727 8.91652878,18.8187537 C8.87148651,18.8119159 8.82630621,18.8047568 8.7810109,18.7972765 L8.76299859,18.7942477 C8.74581444,18.7913795 8.72858428,18.7884424 8.71135411,18.7854824 L8.70318761,18.7840598 L8.67903318,18.7798378 C8.6164847,18.7688239 8.55377519,18.7571674 8.49092765,18.7448456 C8.41255226,18.7294949 8.33399284,18.7131117 8.2553414,18.69565 L8.23302731,18.6906938 L8.20680249,18.6847508 C8.1872259,18.6803223 8.16764931,18.675802 8.14807271,18.6712129 C8.12442437,18.6656829 8.10079903,18.6600383 8.07715069,18.6543248 L8.07563242,18.6539577 L8.06652274,18.651732 C8.00434233,18.6365878 7.94216191,18.6207782 7.88002751,18.6042573 C7.80993364,18.5856254 7.73990879,18.5660986 7.67002196,18.5456769 C7.60413786,18.5264255 7.5383918,18.506348 7.47280676,18.4854674 C7.45580664,18.4800293 7.43882952,18.4745682 7.4218294,18.4690383 C7.37855846,18.4549267 7.33535653,18.440448 7.29224661,18.4256021 L7.26641287,18.4166533 C7.22362502,18.4017615 7.18092918,18.3864797 7.13839437,18.3708537 C7.11120338,18.3608493 7.0841044,18.3507073 7.05705144,18.3404277 C7.03229889,18.3310199 7.00761536,18.3214745 6.98297784,18.3118144 C6.94936867,18.2986206 6.91585152,18.2851744 6.88242638,18.2714988 L6.85712174,18.2610814 C6.83830428,18.2533029 6.81953284,18.2454554 6.8007844,18.2374933 C6.64895653,18.1731994 6.49945208,18.1037428 6.35314522,18.028848 C6.32390686,18.0138645 6.29478351,17.9986974 6.26579819,17.9833008 L6.26381983,17.9822453 L6.26225554,17.9814193 C6.22422956,17.9611812 6.18645663,17.940553 6.14891373,17.9195347 L6.14426688,17.9169648 L6.14010312,17.9146014 C5.99117378,17.8309873 5.84615516,17.7412925 5.70601343,17.6452648 L5.68372234,17.6299141 C5.67631498,17.6247743 5.66890762,17.6196115 5.66152327,17.6144487 L5.6393932,17.5988686 L5.63129572,17.5931092 L5.62835118,17.5910212 L5.62218604,17.5866156 C5.58181363,17.5577958 5.5418553,17.5284253 5.50238005,17.4984812 L5.4977102,17.4949475 L5.49561681,17.4933643 C5.46028232,17.4664719 5.4252929,17.4391436 5.39071755,17.4113564 L5.38080273,17.4033942 L5.37443057,17.3982314 L5.37031281,17.3949043 L5.36522888,17.3907511 C5.35823559,17.3850606 5.35124231,17.3793471 5.34427203,17.3735877 L5.33900406,17.369251 L5.33396614,17.3650749 C5.23709535,17.2848567 5.14339916,17.2009672 5.05331462,17.1132458 L5.04806966,17.1081519 L5.04188152,17.1020942 L5.03843089,17.0987212 L5.03700462,17.0972986 L5.02881512,17.0892446 L5.01979747,17.0802958 C4.95644384,17.0173328 4.89490754,16.9524194 4.83534961,16.8855557 C4.79265377,16.8375992 4.75097012,16.7886331 4.71036767,16.7386344 C4.66962719,16.688498 4.62996791,16.6373062 4.59145884,16.5850818 L4.58616787,16.5778998 L4.58366041,16.5744579 C4.56387677,16.5474738 4.5444152,16.5202143 4.52525268,16.4926565 L4.52269922,16.4890081 L4.51966266,16.4846026 C4.51430267,16.4768699 4.5089887,16.4691142 4.50367472,16.4613356 C4.49173553,16.4438051 4.47991136,16.4261599 4.46820221,16.4084228 L4.46141597,16.3980973 L4.45391659,16.3865785 L4.45391659,26 L0,26 L0,0.546222344 L4.16185498,0.546222344 L4.45391659,3.02240736 L4.47022658,2.99900274 C4.48814687,2.97339535 4.50622819,2.94797151 4.52449355,2.92273124 C4.54262087,2.8976516 4.56093223,2.87273257 4.57940462,2.84802005 C4.61331285,2.80263346 4.64772717,2.75788935 4.68269359,2.71374183 C4.69881955,2.69336605 4.71503752,2.67315089 4.73139353,2.65302751 C4.74167641,2.64036148 4.75202831,2.62774135 4.76240322,2.61519005 C4.79467814,2.57613647 4.82736714,2.5375877 4.86047022,2.49954373 C4.89076678,2.46468922 4.9213854,2.43024773 4.95234909,2.3962422 C4.97719365,2.36893682 5.00224524,2.34190679 5.02750388,2.3151521 L5.03838488,2.30361042 L5.05614414,2.28497851 C5.18206925,2.15333904 5.31296328,2.02821615 5.44822811,1.90947216 C5.47827163,1.88308461 5.50856819,1.85699535 5.53902578,1.83122733 C5.60879759,1.77225689 5.67965059,1.71493853 5.75151579,1.65927227 C5.82252982,1.60422554 5.89453304,1.55078501 5.96743342,1.49890478 L5.98949447,1.48325582 C6.01647842,1.46423383 6.0436004,1.44541836 6.0708144,1.42683235 C6.08181042,1.41930616 6.09282944,1.41182586 6.10387147,1.40436851 C6.18422522,1.35014782 6.26559115,1.29778574 6.34785425,1.24723637 L6.3497636,1.24606614 L6.37120354,1.23296414 C6.43513227,1.19404824 6.49959011,1.15623373 6.56453103,1.11949767 C6.57837957,1.11167318 6.59222811,1.10389459 6.60609966,1.09616189 L6.6193961,1.08879632 C6.63439485,1.08048998 6.64943961,1.07222953 6.66448438,1.06403791 C6.69471192,1.04758585 6.72503149,1.03138618 6.75542007,1.01539303 C6.78776401,0.998390271 6.82022296,0.981662857 6.85277394,0.965187846 C6.89351442,0.944559663 6.93439292,0.924344503 6.97543246,0.90451942 C7.07000282,0.858880426 7.16533231,0.815375383 7.26130593,0.774027235 C7.35730255,0.732633195 7.45394329,0.693396052 7.55106712,0.656246966 C7.57402534,0.64748171 7.59700656,0.638808236 7.62001078,0.630272436 C7.65343591,0.617858813 7.68690706,0.605697593 7.72044721,0.593788776 L7.7405069,0.586698555 L7.75246909,0.582499493 C7.7759104,0.574284933 7.7993517,0.566185101 7.82283901,0.558222944 C7.83894197,0.552761868 7.85504492,0.547346683 7.87117088,0.54197739 C7.9066894,0.530183301 7.94225393,0.51866456 7.97786447,0.507421168 L7.98899851,0.503887531 L8.00880515,0.497692192 L8.01391209,0.496108939 L8.0330746,0.490188949 C8.05030477,0.484888493 8.06751192,0.479656874 8.08476509,0.474471146 C8.1469225,0.455793348 8.20919493,0.43796454 8.27151337,0.420938832 C8.29794522,0.413710937 8.32440008,0.406620716 8.35085494,0.399691116 C8.37540044,0.39326632 8.39994595,0.386956253 8.42451446,0.38078386 C8.44266479,0.376217666 8.46081512,0.37172031 8.47898846,0.36729179 C8.50148659,0.361784822 8.52400772,0.356392583 8.54652886,0.351115073 C8.56240177,0.347374924 8.57829769,0.343703612 8.59419361,0.340078192 C8.60937639,0.336613391 8.62458218,0.333194482 8.63978798,0.329821465 L8.66486258,0.324291552 C8.69147846,0.31848629 8.71811735,0.312795757 8.74473324,0.307288789 C8.88710637,0.27773473 9.02938749,0.252310897 9.17113951,0.230971397 L9.1906931,0.228057294 L9.20125204,0.226519932 C9.24565019,0.220003354 9.28997933,0.213899798 9.33421645,0.208186319 C9.36941291,0.203643071 9.40456336,0.199352225 9.43966781,0.195313782 C9.53520434,0.184322793 9.63039582,0.175190405 9.7250812,0.167870727 C9.73782554,0.166884062 9.75052387,0.165943289 9.7632452,0.165002515 L9.78378798,0.163556936 C9.80069608,0.162386706 9.81758118,0.161262366 9.83444327,0.160206864 L9.85894277,0.158715394 C9.89588755,0.156512607 9.93276332,0.154585168 9.96954707,0.152956024 C10.0527764,0.149238821 10.1355225,0.146967196 10.2177166,0.146072314 C10.2435734,0.145796966 10.2693841,0.145659292 10.2951258,0.145659292 L10.3276078,0.145705183 Z M118.168782,15.8891387 C118.15797,15.9110519 118.147158,15.9328503 118.136116,15.954534 C118.125304,15.9758046 118.114262,15.9969835 118.10299,16.0180247 C118.088037,16.045812 118.072854,16.0733927 118.057441,16.1007899 L118.053761,16.1073982 L118.046859,16.1192841 C117.869037,16.4306802 117.651417,16.7163771 117.403201,16.9768107 C117.39492,16.9855301 117.386408,16.9942265 117.378127,17.0029 C117.369845,17.0114358 117.361564,17.0199257 117.353282,17.0283927 C117.349601,17.032041 117.346151,17.0356664 117.34247,17.0392919 L117.332808,17.0490438 C117.326367,17.0555604 117.319926,17.062031 117.313485,17.0684788 C117.293701,17.0881203 117.273918,17.1076012 117.253904,17.1269444 C117.200534,17.1784116 117.146014,17.2288233 117.090114,17.2781795 L117.082292,17.2852239 L117.075851,17.2907997 C116.841898,17.4966226 116.588392,17.6838824 116.321083,17.8527857 C116.276915,17.8808024 116.232286,17.9083143 116.187198,17.9353214 C116.104383,17.9848841 116.020647,18.0327488 115.935762,18.0789156 C115.86859,18.1155139 115.800727,18.1510568 115.732405,18.1855213 C115.696288,18.2036943 115.660171,18.2215919 115.623825,18.2391683 C115.579427,18.2606225 115.535028,18.2816178 115.4904,18.3022001 L115.471077,18.3110801 L115.468316,18.3122274 C115.431049,18.329322 115.393552,18.3460953 115.355825,18.3625703 C115.320859,18.3778062 115.286123,18.3927898 115.250926,18.4075209 C115.172942,18.4403562 115.094267,18.4719295 115.015363,18.5021948 C114.992589,18.5109372 114.969815,18.5195877 114.94704,18.5281235 C114.911154,18.5414779 114.875267,18.5545799 114.839611,18.5674065 C114.812466,18.5771125 114.785321,18.5866809 114.757946,18.5960886 C114.743913,18.6009761 114.729881,18.6058406 114.715618,18.6106592 L114.689163,18.619585 C114.440948,18.7031303 114.191122,18.774239 113.943136,18.8330259 L113.923353,18.8377068 C113.806031,18.8652187 113.68917,18.8900001 113.572998,18.912005 C113.354228,18.9535597 113.138218,18.9853395 112.92796,19.0074821 C112.894834,19.0109469 112.862168,19.0141822 112.829502,19.0171881 C112.762559,19.0233146 112.696307,19.0284774 112.630515,19.0326305 C112.580596,19.0357971 112.531137,19.0383899 112.482138,19.0404091 C112.455683,19.0415105 112.429688,19.0424284 112.403464,19.0431856 L112.380919,19.0438051 L112.367577,19.0441263 C112.356305,19.0444017 112.344803,19.0446541 112.333531,19.0448606 C112.203557,19.0457325 112.074273,19.0446541 111.94591,19.0416023 C111.886329,19.0401797 111.826978,19.038344 111.767857,19.0360724 C111.743932,19.0351546 111.720238,19.0341679 111.696314,19.0331354 C111.62109,19.0298082 111.546326,19.0258157 111.472023,19.0211348 L111.441657,19.0192073 C111.364133,19.0141134 111.287069,19.0083081 111.210234,19.0017456 C111.193901,19.000346 111.177568,18.9989233 111.161466,18.9974777 C110.996295,18.9826778 110.832965,18.9644359 110.671015,18.9427752 L110.667105,18.9422245 L110.63881,18.9383926 C110.521948,18.9223994 110.406237,18.9045936 110.291216,18.8850209 L110.289375,18.8846767 L110.271202,18.881579 C109.578545,18.7621925 108.920164,18.5776632 108.303421,18.3288401 C108.255572,18.3095657 108.208183,18.2899242 108.160795,18.2698926 C108.146532,18.2637661 108.132039,18.2575937 108.117547,18.2513984 L108.095693,18.2418988 L108.071078,18.2312061 C108.058426,18.2256533 108.045774,18.2200775 108.033121,18.2144558 C107.967329,18.1853606 107.902227,18.1555083 107.837585,18.1248987 C107.633768,18.0283662 107.435011,17.9243074 107.241546,17.8127684 C107.197608,17.7874363 107.15413,17.7617372 107.110652,17.735625 C107.081207,17.7178191 107.051761,17.6998297 107.022316,17.6816796 C106.995631,17.6651817 106.969176,17.648546 106.942721,17.6317498 C106.907525,17.6093548 106.872558,17.5867074 106.837822,17.5637617 L106.82977,17.5584383 L106.815508,17.5489847 C106.692435,17.4674127 106.571893,17.3825136 106.453881,17.2943562 C106.429037,17.275885 106.404422,17.257253 106.380038,17.2384835 C106.368306,17.2294658 106.356343,17.2204023 106.344611,17.2113158 C106.328738,17.1988562 106.312635,17.1863508 106.296532,17.1737766 L106.28503,17.1645524 L106.272838,17.1548923 L106.263866,17.147848 L106.248914,17.1358244 L106.242933,17.1310747 L106.22798,17.1190282 C106.004609,16.9390192 105.79113,16.7465506 105.588232,16.5416915 L105.583402,16.5366205 L105.579491,16.5327656 C105.567299,16.520329 105.555106,16.5078465 105.542914,16.4953182 C105.505877,16.457366 105.469301,16.4189779 105.432954,16.3801996 C105.417081,16.3632198 105.401208,16.3461712 105.385565,16.3290307 C105.35865,16.2996602 105.331965,16.2700603 105.305281,16.2402079 C105.278826,16.2104703 105.252601,16.1805032 105.226606,16.1502837 C105.210963,16.1320878 105.19532,16.113823 105.179677,16.0954894 C105.097322,15.9979702 105.016808,15.8980876 104.938593,15.7958186 C104.858539,15.6911174 104.780784,15.5839151 104.70533,15.4742117 C104.690148,15.4523903 104.675195,15.4304313 104.660472,15.4084034 C104.330362,14.9183521 104.046029,14.3797019 103.812536,13.7930263 C103.787002,13.7287554 103.762157,13.6639108 103.737773,13.5984697 C103.72121,13.5537485 103.704647,13.508752 103.688774,13.4635031 C103.676582,13.4295894 103.664849,13.3955379 103.653117,13.3613259 C103.646676,13.3423039 103.640235,13.3232131 103.633794,13.3040993 C103.625282,13.2792033 103.617231,13.2542154 103.608949,13.2291357 C103.562481,13.0868724 103.519003,12.9420621 103.478055,12.7947048 C103.471154,12.7696022 103.464253,12.7444308 103.457581,12.7191905 C103.414793,12.5595114 103.375226,12.3968953 103.33888,12.2313421 C103.276768,11.9466089 103.224549,11.6532022 103.182911,11.3511451 C103.114358,10.8540724 103.073871,10.3335493 103.063519,9.78985094 C103.061679,9.69533761 103.060758,9.60013591 103.060758,9.50422289 C103.060758,9.4751048 103.060758,9.44607849 103.060989,9.41709808 C103.061219,9.3929592 103.061449,9.36886622 103.061679,9.34481913 C103.062829,9.24631324 103.064899,9.14858752 103.06812,9.051619 C103.06927,9.01949502 103.07042,8.98743988 103.071801,8.95547652 L103.072721,8.93250788 L103.072951,8.92856122 C103.076861,8.83308417 103.082152,8.73834138 103.088134,8.64437875 C103.097105,8.50736998 103.108147,8.37194447 103.12126,8.23810221 C103.133912,8.10923917 103.148635,7.9818676 103.164968,7.85596456 C103.17762,7.75945495 103.191653,7.66379434 103.206375,7.5690286 C103.209826,7.54755143 103.213276,7.5260972 103.216727,7.50471181 C103.258595,7.24817891 103.308744,6.99811669 103.366715,6.7545481 C103.372006,6.73268085 103.377297,6.71088244 103.382588,6.68912992 C103.426066,6.51175967 103.473684,6.33790012 103.525444,6.16750536 C103.532345,6.14485796 103.539246,6.12227939 103.546148,6.09972377 L103.555349,6.07060568 C103.620221,5.86471393 103.691304,5.66400791 103.767908,5.46851056 C103.878329,5.18763227 104.000711,4.91751551 104.134366,4.65820618 C104.141497,4.64450759 104.148398,4.6308549 104.155529,4.61722516 C104.172783,4.58422925 104.190266,4.55139395 104.207979,4.51874222 C104.234434,4.46950075 104.261579,4.42064936 104.288954,4.37221099 C104.350605,4.26294358 104.414557,4.15571833 104.480579,4.05058114 C104.522217,3.98399273 104.565005,3.91823036 104.608253,3.85329403 C104.827023,3.526249 105.066267,3.22015338 105.324374,2.9352137 C105.338867,2.91915172 105.353359,2.90313562 105.368082,2.8872113 C105.402818,2.84953447 105.437785,2.81224771 105.473211,2.77532808 C105.642983,2.5981414 105.820115,2.42962819 106.004609,2.2698573 C106.098926,2.18826239 106.194854,2.10893911 106.292852,2.03188746 C106.344151,1.99143419 106.396141,1.95160046 106.44836,1.91240921 C106.507021,1.86855998 106.566142,1.82551385 106.625953,1.78324788 C106.647347,1.76821844 106.668741,1.75325785 106.690135,1.73841198 C106.906374,1.58866836 107.130206,1.44911262 107.361398,1.31979066 C107.380031,1.30935037 107.398665,1.29897892 107.417298,1.2886763 C107.486311,1.25077 107.555784,1.21378154 107.626177,1.17768796 C107.656542,1.16197015 107.687368,1.14641297 107.718193,1.13103935 C107.748559,1.11587225 107.778925,1.1008887 107.80952,1.08606578 L107.813431,1.08416129 L107.819872,1.08106362 C107.950766,1.01784822 108.083501,0.957684603 108.218305,0.90057276 C108.24407,0.889604716 108.270065,0.878728455 108.29606,0.867989869 C108.322514,0.857090662 108.348969,0.846306184 108.375424,0.83565938 C108.447657,0.806656018 108.520351,0.778524592 108.593504,0.751265102 C108.651475,0.7296732 108.709905,0.708609049 108.768566,0.688095595 C108.821246,0.669578417 108.874386,0.651520153 108.927755,0.633897856 C108.989867,0.613407348 109.052438,0.593490482 109.11524,0.57419315 C109.211168,0.544684982 109.307785,0.516576502 109.405093,0.489844764 C109.480087,0.469331309 109.555311,0.4496439 109.630995,0.430782537 C109.676773,0.419378525 109.722781,0.408272807 109.76879,0.397465383 C109.809047,0.388011755 109.849535,0.378787585 109.890252,0.369815817 C109.937871,0.359260796 109.98549,0.349004068 110.033568,0.339091527 C110.172514,0.310340567 110.31284,0.284251308 110.454546,0.260869642 C110.486062,0.255660968 110.517807,0.250567024 110.549553,0.245610753 C110.655603,0.229066904 110.762342,0.214014526 110.869772,0.200453619 C110.936024,0.192101385 111.002506,0.184322793 111.069219,0.177094898 C111.097514,0.17404312 111.126039,0.171083125 111.154334,0.168214913 C111.280627,0.155525942 111.407841,0.144856192 111.535744,0.13622861 L111.561279,0.134530628 L111.570481,0.133956986 C111.753134,0.122162897 111.937628,0.114544925 112.123732,0.11110307 C112.163529,0.110345862 112.203557,0.109795166 112.243354,0.10945098 C112.266358,0.109244469 112.289133,0.109106795 112.311907,0.109015012 L112.320188,0.108992066 L112.335601,0.10896912 L112.350784,0.108946175 L112.381609,0.10896912 C112.402083,0.109015012 112.422557,0.109106795 112.443031,0.109244469 C112.517564,0.109244469 112.591638,0.110322917 112.665712,0.112456867 C112.690096,0.113168183 112.714251,0.113971283 112.738405,0.114889111 L112.752898,0.115462753 L112.776592,0.116449418 C112.805577,0.117688486 112.834563,0.119111119 112.863548,0.120671426 C113.007324,0.128495909 113.150411,0.140289998 113.292577,0.15596191 C113.370561,0.164566547 113.448545,0.174318469 113.52584,0.185240621 C113.58174,0.193110995 113.63764,0.201577958 113.69308,0.210641509 C113.706653,0.212844296 113.719995,0.215070029 113.733568,0.217364598 L113.751971,0.220462268 L113.779116,0.225189081 L113.786477,0.226451095 C113.890456,0.244738816 113.993975,0.265114596 114.096574,0.287532543 C114.12556,0.29384261 114.154545,0.300336243 114.1833,0.306967549 C114.258524,0.324314497 114.333518,0.342762839 114.407821,0.362312573 C114.470393,0.378718748 114.532504,0.39588213 114.594386,0.413825666 C114.755645,0.460611944 114.914604,0.512538059 115.070573,0.569420445 C115.090357,0.576671285 115.11037,0.583990963 115.129924,0.591425369 C115.175012,0.608267512 115.219871,0.625522677 115.264269,0.643190864 C115.305676,0.659665875 115.346854,0.676485072 115.387801,0.6936714 C115.419777,0.706979905 115.451293,0.720517867 115.482809,0.73426234 C115.608412,0.789056667 115.731945,0.847201066 115.852717,0.908603754 L115.876181,0.920558463 C115.896195,0.930884027 115.916208,0.941278428 115.936222,0.951810504 C115.950255,0.959176073 115.964287,0.966610479 115.97832,0.974090777 L115.992352,0.98159402 L116.010296,0.99130005 C116.423912,1.21536479 116.805322,1.47832249 117.143254,1.77579052 C117.156826,1.7876305 117.170169,1.79953932 117.183511,1.81151698 C117.204675,1.83049307 117.225609,1.84962978 117.246543,1.86888122 C117.511321,2.11403306 117.747575,2.38125866 117.949322,2.66824051 C117.971406,2.69956138 117.99303,2.73113466 118.014193,2.7629374 C118.070784,2.84779059 118.124384,2.93429588 118.174763,3.02240736 L118.32084,0.546222344 L122.592264,0.546222344 L122.592264,18.4986383 L118.393763,18.4986383 L118.174763,15.876771 L118.168782,15.8891387 Z M45.3410931,4.58913962e-05 C51.3325429,0.0145016812 55.0737197,3.71419721 54.400156,11.0631995 L54.3962453,11.1064522 L40.3408952,11.1064522 C40.6328188,13.3277564 42.567704,14.9300086 45.7073203,14.9300086 L45.7266439,14.9299627 C47.367075,14.9251441 49.508078,14.3068263 50.526475,13.2549267 L53.3739377,16.0588451 C51.4829905,18.0175588 48.396744,18.9646195 45.6663728,18.9719851 L45.6343969,18.972031 C39.4280877,18.972031 35.7407408,15.1484746 35.7407408,9.39497842 C35.7407408,3.93277793 39.4646644,0 45.3058966,0 L45.3410931,4.58913962e-05 Z M134.185472,4.2969491 C134.170749,4.296995 134.155797,4.29710972 134.141074,4.29731624 C134.054808,4.29837174 133.969462,4.30172181 133.885037,4.30729761 C133.862033,4.30881203 133.839258,4.31048707 133.816484,4.31232272 C133.73873,4.31860984 133.661666,4.32680146 133.585522,4.33685167 L133.57632,4.33804485 C133.471651,4.35204173 133.368592,4.36954929 133.266913,4.39045282 C133.258172,4.39228848 133.2492,4.39412414 133.240228,4.39600568 C133.153272,4.41447697 133.067467,4.43542639 132.982811,4.45878511 L132.971769,4.46183689 L132.962798,4.46433797 C132.918629,4.4767516 132.874921,4.4898077 132.831443,4.50352922 C132.81557,4.50850844 132.799928,4.51357944 132.784055,4.51874222 L132.774163,4.52200051 L132.764961,4.52509818 C132.75599,4.52810407 132.747018,4.53115585 132.737816,4.53423057 C132.728845,4.53728235 132.719873,4.54038002 132.711131,4.54347769 L132.70492,4.54563458 L132.700549,4.54710311 C132.617734,4.57619825 132.536299,4.6076568 132.456245,4.64143287 L132.446813,4.64540248 L132.434851,4.65054231 C132.3778,4.67491064 132.32144,4.70044921 132.266,4.72713505 C132.257258,4.73133412 132.248516,4.73553318 132.239775,4.73977813 C132.075755,4.81992746 131.917946,4.91003521 131.766808,5.00934419 C131.756686,5.01604434 131.746564,5.02279037 131.736212,5.02955935 C131.727931,5.035204 131.719419,5.04084864 131.711138,5.04656212 C131.702626,5.05225265 131.694345,5.05798907 131.686063,5.06374844 C131.66766,5.07639152 131.649486,5.08919522 131.631313,5.10211365 L131.623262,5.10787302 L131.619581,5.11048883 C131.607619,5.11904758 131.595887,5.12762927 131.583924,5.13630274 C131.563451,5.15142396 131.542977,5.16675168 131.522503,5.18224003 C131.515602,5.18749459 131.508701,5.19277211 131.501799,5.19807256 C131.490757,5.20653952 131.479945,5.21507532 131.468903,5.22365701 C131.455101,5.23457917 131.441068,5.2455931 131.427266,5.25669882 L131.419444,5.26307772 L131.416914,5.26516578 L131.408402,5.27204949 L131.401271,5.27783181 C131.388849,5.28799675 131.376426,5.29820759 131.364234,5.30851021 L131.353652,5.31741314 L131.34445,5.32512289 L131.34261,5.32659142 L131.333638,5.33439295 C131.323287,5.34315821 131.312935,5.35196936 131.302813,5.36084934 C131.292921,5.36931631 131.283259,5.37782916 131.273597,5.38638791 C131.264396,5.39448774 131.255194,5.40261051 131.246222,5.41075624 C131.226669,5.42828675 131.207345,5.44597788 131.188022,5.46385258 C131.166628,5.48370061 131.145464,5.5037781 131.12453,5.52406209 C131.093244,5.55430452 131.062419,5.58502881 131.031823,5.61621202 C130.972472,5.67701812 130.914732,5.73959104 130.858601,5.8037931 C130.745881,5.93297738 130.639831,6.06888475 130.540913,6.21082684 L130.538152,6.21461288 L130.534472,6.22002806 C130.5232,6.23609005 130.512158,6.25226677 130.501346,6.26848938 C130.494904,6.27775944 130.488693,6.28705245 130.482482,6.2963684 C130.428882,6.37688486 130.377583,6.45923697 130.328354,6.54333295 L130.327894,6.54450318 L130.320993,6.55625138 C130.30512,6.58380916 130.289247,6.61155051 130.273834,6.63947543 L130.270153,6.64594611 L130.269463,6.6473458 L130.263252,6.65874981 L130.256351,6.67123227 C130.25359,6.67628033 130.25083,6.68132838 130.248069,6.68637643 C130.150071,6.86794574 130.062195,7.0569724 129.985361,7.25237797 L129.9826,7.25923873 L129.98191,7.26141857 C129.781313,7.77427787 129.65594,8.33103229 129.615683,8.91272868 C129.614763,8.92631254 129.613843,8.93991934 129.613153,8.95354908 C129.607632,9.0401232 129.604181,9.12722507 129.602571,9.21483175 C129.602341,9.22699297 129.602111,9.23920008 129.602111,9.25138424 C129.601881,9.27483475 129.601651,9.2983082 129.601651,9.32182754 L129.601651,9.32214878 L129.601651,18.4986383 L125.18415,18.4986383 L125.18415,0.509807521 L129.16365,0.509807521 L129.455574,2.94957771 L129.476968,2.92872007 L129.48985,2.91619172 L129.498362,2.90793127 L129.510554,2.89606834 C129.559093,2.84919028 129.607402,2.80293175 129.65594,2.75729276 C129.677794,2.73673342 129.699649,2.71626585 129.721503,2.69595891 C129.820881,2.6034648 129.920259,2.51356356 130.019867,2.42625517 C130.180667,2.2853227 130.341926,2.1511592 130.503646,2.02381057 C130.573579,1.96878679 130.643512,1.91502502 130.713675,1.86254821 C130.725407,1.85385179 130.737139,1.84520126 130.748641,1.83657368 C130.836977,1.77108666 130.925544,1.70761885 131.01434,1.64617027 C131.050687,1.62099884 131.087033,1.59619454 131.12361,1.57168854 C131.170308,1.54029882 131.217237,1.50945981 131.264166,1.47917148 C131.297982,1.45732718 131.331798,1.43578117 131.365844,1.41453345 C131.400351,1.39294155 131.434857,1.37167089 131.469363,1.35067557 C131.496738,1.334017 131.524343,1.31754199 131.551718,1.30125054 C131.6159,1.26334425 131.680082,1.22644756 131.744494,1.19056049 C131.756456,1.18390624 131.768418,1.17729788 131.78038,1.17071246 C131.824779,1.14639002 131.868947,1.12254944 131.913345,1.09919072 C131.929908,1.09056314 131.946241,1.08200439 131.962574,1.07351449 C132.076445,1.01472761 132.190776,0.95908429 132.306027,0.906584533 C132.341223,0.890568436 132.37642,0.874850632 132.411846,0.859431123 C132.453254,0.841235185 132.495122,0.823475214 132.536759,0.806105321 L132.545041,0.802732303 L132.558613,0.797110607 C132.577707,0.789263178 132.5968,0.781484587 132.615894,0.773820723 C132.840875,0.683460564 133.068847,0.604848603 133.30096,0.53803073 C133.314992,0.533946395 133.329255,0.529907952 133.343517,0.525938347 C133.416441,0.505379001 133.490054,0.485989886 133.563898,0.467771002 C133.601625,0.458432103 133.639582,0.449391498 133.677769,0.440672132 C133.702843,0.434889817 133.728148,0.429245175 133.753453,0.423738207 C133.8457,0.403660721 133.938637,0.385373 134.032034,0.368875043 C134.110478,0.355015841 134.189613,0.342441599 134.268977,0.331106424 C134.426556,0.308665531 134.585975,0.291180909 134.747465,0.278629612 C134.905044,0.266422501 135.064693,0.258896312 135.226643,0.256142828 C135.241596,0.25586748 135.256549,0.255660968 135.271731,0.255477403 C135.304397,0.255087326 135.337063,0.25490376 135.369729,0.25490376 C135.418038,0.25490376 135.466117,0.255316783 135.514196,0.256142828 C135.552843,0.256808253 135.59126,0.257726081 135.629677,0.258919258 C135.75275,0.262728244 135.875132,0.269244822 135.996594,0.278446047 C136.012927,0.279685114 136.02926,0.280970074 136.045363,0.282277978 C136.07964,0.285100299 136.113916,0.288106186 136.147962,0.291341529 C136.470711,0.32195109 136.78748,0.37172031 137.096656,0.440327947 C137.108388,0.442920811 137.120121,0.445559566 137.131853,0.448221267 C137.199255,0.463503102 137.266428,0.479679819 137.33291,0.496751419 C137.375007,0.507490005 137.416645,0.518595723 137.458283,0.530045627 C137.474386,0.534474146 137.490489,0.538971503 137.506592,0.543491806 C137.536727,0.551958768 137.566633,0.560586351 137.596308,0.569420445 C137.657499,0.587501655 137.71823,0.606385964 137.778732,0.626004536 C137.859246,0.652208523 137.939531,0.679766307 138.018896,0.708677887 C138.058233,0.723041894 138.09757,0.737750086 138.136677,0.752779518 L138.154391,0.759640282 L138.169343,0.765399652 C138.181305,0.77010352 138.193498,0.77485328 138.20546,0.779648931 C138.224323,0.787106283 138.243187,0.794632472 138.26182,0.802250443 C138.282064,0.810442058 138.302308,0.8187484 138.322321,0.827146526 C138.377301,0.849977496 138.431821,0.873496836 138.485881,0.897681602 C138.53097,0.917804979 138.575598,0.93838727 138.620226,0.959428476 C138.645301,0.97124551 138.670145,0.983223165 138.69522,0.995338493 C138.80357,1.04809065 138.910539,1.1035963 139.015899,1.16183248 C139.061447,1.18698096 139.106535,1.2126572 139.151624,1.23883824 C139.169567,1.24939326 139.18774,1.26004007 139.205914,1.27077865 C139.325766,1.34202505 139.443317,1.4169198 139.558798,1.49543998 C139.570761,1.50342509 139.582493,1.51145608 139.593995,1.51951002 C139.725119,1.60970956 139.853022,1.70459002 139.978165,1.80410551 C140.0573,1.86716029 140.135284,1.93205073 140.212118,1.99882271 C140.324379,2.0964796 140.433879,2.19808315 140.540619,2.30361042 C140.560172,2.32304542 140.579726,2.34259516 140.599279,2.36230551 C140.616302,2.37951479 140.633096,2.39681584 140.650119,2.41423163 C140.689456,2.45500613 140.728563,2.49635428 140.76721,2.53825313 C140.776872,2.54883109 140.786764,2.5594779 140.796425,2.57014765 L140.805167,2.57969306 L140.817359,2.59318513 C140.871649,2.6533258 140.925249,2.71456787 140.977699,2.77691133 L140.978849,2.77805862 L140.991961,2.79377642 C141.002083,2.80577702 141.011975,2.81780057 141.022097,2.82987 C141.032449,2.84244425 141.042801,2.85504143 141.053153,2.86768451 C141.536931,3.46011949 141.944566,4.14901819 142.259954,4.92992913 C142.279278,4.97795448 142.298371,5.02634696 142.317235,5.07508362 C142.329197,5.10661101 142.341159,5.13827607 142.352891,5.17010176 L142.357492,5.18207941 L142.360253,5.1896056 C142.408101,5.31973065 142.45342,5.45226501 142.496438,5.58718571 C142.51208,5.63686315 142.527493,5.68686182 142.542676,5.73718174 L142.547277,5.75246357 L142.554868,5.77816276 C142.574882,5.84599024 142.594206,5.91436842 142.612839,5.98334319 C142.632162,6.05413067 142.650566,6.12551473 142.668509,6.19751833 C142.67426,6.22071644 142.680011,6.24400632 142.685532,6.26731915 C142.703476,6.34134197 142.720499,6.41598433 142.736832,6.49124622 C142.740742,6.50914386 142.744653,6.5270874 142.748334,6.54507682 C142.752245,6.56327276 142.755925,6.58153754 142.759836,6.59980231 C142.789051,6.74167557 142.815736,6.88572866 142.839891,7.03198454 C142.925236,7.55080972 142.977686,8.09721563 142.994249,8.67044506 C142.997009,8.77058008 142.99885,8.87154116 142.99954,8.97332827 C142.99977,8.99358932 142.99977,9.01387332 142.99977,9.03420321 L143,9.06724502 L143,18.4986383 L138.545922,18.4986383 L138.545922,9.10365984 L138.545922,9.09218699 L138.545922,9.07167354 L138.545692,9.04955388 C138.545462,9.00269877 138.544542,8.95602722 138.543392,8.90956218 C138.542702,8.88205029 138.541782,8.85460723 138.540861,8.82725596 C138.539941,8.80710964 138.539251,8.7870092 138.538331,8.76693172 L138.537641,8.75534414 L138.537181,8.74563811 L138.536951,8.73969518 L138.536491,8.73074635 C138.53189,8.64240542 138.525679,8.55484463 138.517857,8.46810989 C138.515327,8.43965723 138.512566,8.4112734 138.509806,8.38298135 C138.508425,8.37026944 138.507045,8.35758046 138.505665,8.34489149 C138.498994,8.28406245 138.491632,8.22364642 138.483351,8.16368932 C138.482431,8.15673677 138.481281,8.14980717 138.48036,8.14285462 L138.47829,8.12791697 C138.468168,8.05823089 138.457126,7.98918728 138.444934,7.92076321 L138.442173,7.90612385 L138.441253,7.90031859 C138.434122,7.86115029 138.42653,7.82218849 138.418709,7.78345615 L138.417099,7.77517275 L138.415028,7.76528316 C138.403296,7.70892852 138.391104,7.65305575 138.377762,7.59768778 L138.375691,7.58899136 L138.374771,7.58513648 C138.354067,7.49847058 138.331293,7.41297491 138.306909,7.3287642 L138.305298,7.32341785 L138.304378,7.32018251 C138.202929,6.97455146 138.069735,6.6502599 137.905485,6.3518511 C137.895363,6.33337981 137.885011,6.31497736 137.874429,6.29668964 C137.746756,6.07239544 137.600909,5.86319951 137.437349,5.67109813 C137.392031,5.61793295 137.345332,5.56609861 137.297483,5.51559513 L137.291502,5.50930801 L137.284371,5.50185066 C137.27954,5.49689439 137.274709,5.49193812 137.269878,5.48698185 C137.263897,5.48080945 137.257916,5.47463706 137.251935,5.46851056 C137.194194,5.40993019 137.134843,5.35325432 137.073422,5.29855177 C137.056629,5.28370591 137.039836,5.26899771 137.023043,5.25445014 C137.002569,5.23698847 136.982095,5.21971035 136.961392,5.2026617 C136.906641,5.15766519 136.850511,5.11416014 136.793001,5.07219246 C136.770456,5.05576334 136.747912,5.03954073 136.724908,5.02357053 C136.712026,5.0146217 136.699143,5.00576467 136.686031,4.99695352 C136.610577,4.94571577 136.532593,4.89700206 136.452538,4.85095004 C136.446327,4.84746229 136.440346,4.84399749 136.434365,4.84055564 C136.30048,4.76458243 136.160384,4.69590596 136.014078,4.63496218 C135.995214,4.62711475 135.976121,4.61938205 135.957257,4.61178703 C135.951506,4.6095613 135.945985,4.60735851 135.940464,4.60513278 C135.908028,4.59244381 135.875592,4.58012197 135.842696,4.56816726 C135.817852,4.55917254 135.793007,4.55038434 135.767932,4.54180265 L135.75505,4.53737413 L135.751139,4.53604328 C135.737337,4.53145414 135.723764,4.52693384 135.709962,4.52245943 C135.582058,4.48074415 135.449784,4.44453584 135.313369,4.41406395 C135.284614,4.40768504 135.255858,4.40155854 135.227103,4.39570739 C135.051121,4.35998094 134.868237,4.33366222 134.678913,4.31721016 C134.634744,4.31337822 134.590346,4.31007404 134.545488,4.30732056 C134.528465,4.306288 134.511672,4.30532428 134.494649,4.30445235 C134.484757,4.3039246 134.474635,4.30344274 134.464513,4.30296088 L134.44841,4.30222662 C134.421265,4.30105638 134.39412,4.30006972 134.366745,4.29928957 C134.334079,4.29834879 134.301183,4.29768337 134.268057,4.29731624 C134.251494,4.29710972 134.234931,4.296995 134.218368,4.2969491 L134.201575,4.29692616 L134.185472,4.2969491 Z M86.9433099,3.53884618 C87.0438383,3.38036025 87.1464372,3.22896453 87.2506463,3.08440663 C87.2771011,3.04773941 87.303786,3.0114852 87.3304709,2.97568992 C87.4332998,2.83785511 87.537739,2.70646804 87.6440185,2.5813222 C87.6840458,2.53400817 87.7243032,2.48761197 87.7650207,2.44206476 C87.9433034,2.24186354 88.126187,2.05852742 88.3134414,1.89095498 L88.322413,1.88292399 L88.3382859,1.86878944 C88.3502481,1.85823442 88.3622103,1.84772529 88.3741725,1.83730794 L88.387515,1.82565153 L88.3891253,1.82429773 C88.4770014,1.74795739 88.5660277,1.67501302 88.6557442,1.60537282 C88.7627139,1.52251591 88.8708337,1.44429402 88.9801038,1.37054655 L88.9881552,1.36506253 L89.0044882,1.35414037 C89.0399147,1.33059809 89.0753412,1.30751472 89.1107677,1.28486731 C89.1570062,1.25549682 89.2032447,1.22688353 89.2499433,1.19902746 C89.2717973,1.18594841 89.2936513,1.17305293 89.3155053,1.16031806 C89.4434088,1.085974 89.5729226,1.01722869 89.7040467,0.953737942 C89.7226801,0.944697337 89.7413135,0.935771461 89.760177,0.926937367 C89.7942232,0.910875378 89.8282695,0.895180521 89.8625457,0.879806903 L89.8774985,0.873152651 L89.8947517,0.865488787 C89.9577832,0.837678601 90.0210448,0.811038646 90.0847665,0.78552303 C90.4480032,0.640024358 90.8218218,0.531238803 91.2050722,0.453338158 C91.2563716,0.442920811 91.3079011,0.433054161 91.3594305,0.423738207 C91.4974559,0.398773288 91.6368615,0.377663245 91.7771872,0.360155678 C91.7951305,0.357906999 91.8130738,0.355727158 91.8312471,0.353593208 C91.8807062,0.347765001 91.9303953,0.342349816 91.9800845,0.3373706 C92.2427927,0.311097775 92.5094116,0.296756714 92.7797112,0.292603542 C92.7902932,0.292442923 92.8008751,0.292282303 92.8114571,0.292167574 L92.8388321,0.291846334 C92.8751788,0.291502149 92.9115254,0.291318583 92.9481022,0.291318583 L92.9780076,0.291341529 C93.04541,0.291525095 93.1123523,0.292213466 93.1790645,0.293475479 C93.2296738,0.294439198 93.2802831,0.295724157 93.3304323,0.297307411 C93.410487,0.299831437 93.4896216,0.303158564 93.568296,0.307288789 C93.7661323,0.317683191 93.9598279,0.333148591 94.1493827,0.353593208 C94.1664058,0.355428864 94.1831989,0.357287465 94.200222,0.359214904 C94.4024291,0.382091765 94.5998053,0.410705051 94.7923507,0.445008869 C94.8903487,0.4624476 94.9871965,0.481354855 95.082664,0.501730635 C95.1986053,0.526489043 95.3129363,0.553427293 95.4254269,0.582499493 C95.5397579,0.612076497 95.6522485,0.643879235 95.7628989,0.67788476 C95.807067,0.691445667 95.850775,0.705373706 95.894253,0.71964593 C95.9752278,0.746148212 96.0548224,0.773843669 96.1334969,0.802732303 C96.324662,0.872877302 96.5096159,0.950089576 96.6881287,1.03423145 C96.7017012,1.04054152 96.7150436,1.04687453 96.728156,1.05325344 C96.8549093,1.11401364 96.978672,1.17828454 97.0989841,1.24606614 C97.2602437,1.33674754 97.4157523,1.43369311 97.5657398,1.53678813 C97.5954152,1.5572098 97.6248606,1.57786093 97.654076,1.59876446 C97.664888,1.60654305 97.67593,1.61436754 97.686742,1.62219202 C97.7759984,1.68701362 97.8634144,1.75410684 97.9487601,1.82342579 C98.0014398,1.86635719 98.0534293,1.91013759 98.1044987,1.95478991 C98.1371647,1.98321963 98.1693706,2.01199354 98.2013465,2.04111163 L98.2075576,2.04666449 L98.2169893,2.0554068 C98.3600756,2.1869086 98.4967207,2.32540883 98.6269246,2.47081572 C98.7849636,2.6474976 98.9333408,2.83439031 99.0720563,3.0312644 C99.0789576,3.04117694 99.0860889,3.05111243 99.0929901,3.06107086 C99.1162244,3.09457158 99.1392286,3.12837059 99.1622329,3.1624679 C99.3379851,3.42544854 99.4974044,3.70540901 99.6402606,4.00191332 C99.6467018,4.01529066 99.653143,4.02871389 99.6595842,4.04216007 C99.680518,4.08637643 99.7012218,4.13095992 99.7214655,4.1758876 C99.7343479,4.20473034 99.7472302,4.23371076 99.7601126,4.2628518 C99.8992882,4.58186584 100.02052,4.91868574 100.124269,5.27285259 C100.138762,5.32312662 100.153255,5.37376777 100.167287,5.42475311 C100.18178,5.47807892 100.196043,5.53177185 100.209845,5.58583191 C100.217437,5.61554659 100.225028,5.645376 100.232389,5.67532014 C100.23699,5.69353902 100.241361,5.7118038 100.245732,5.73011446 C100.262295,5.7989745 100.278168,5.86845408 100.293581,5.93850729 C100.303472,5.98391683 100.313134,6.02955582 100.322566,6.07547017 C100.362133,6.26901713 100.39733,6.46699261 100.427695,6.66932778 C100.442418,6.76753537 100.45622,6.86675257 100.468643,6.96697938 L100.470713,6.98368384 L100.473934,7.00988783 C100.476464,7.02975881 100.478765,7.04965273 100.481065,7.06959254 C100.495328,7.19010334 100.50798,7.31205973 100.519022,7.4354158 C100.539496,7.66562999 100.554909,7.9008234 100.56457,8.14090424 C100.568021,8.22449542 100.570781,8.30870613 100.573082,8.39349048 C100.574692,8.46393378 100.576072,8.53479009 100.576993,8.60605943 C100.577683,8.67078924 100.578143,8.73586324 100.578143,8.80123554 L100.578143,8.81234126 L100.578143,18.4986383 L96.1242952,18.4986383 L96.1242952,8.81234126 L96.1242952,8.80208453 C96.1240652,8.71739196 96.1226849,8.63318124 96.1201544,8.54952123 C96.117624,8.46788044 96.1137133,8.38676739 96.1086523,8.30625094 C96.1063519,8.26884945 96.1038214,8.23158564 96.1008309,8.1944595 C96.0911691,8.07091986 96.0787468,7.94884874 96.063104,7.82849856 C96.0568928,7.78168933 96.0504516,7.73513251 96.0435504,7.68885104 C96.0350388,7.63332245 96.0260672,7.57816099 96.0161753,7.52345845 L96.0129548,7.50471181 L96.0099642,7.4887416 L96.0081239,7.47933387 L96.0053634,7.46377669 C95.9963917,7.41664622 95.98696,7.36985994 95.9770682,7.32341785 C95.9607352,7.24648092 95.9427919,7.17050772 95.9234683,7.09552118 C95.9140366,7.05798201 95.9039147,7.02069525 95.8935628,6.98368384 C95.8868916,6.95984326 95.8799903,6.93611741 95.8730891,6.91248334 C95.8636573,6.88038231 95.8537655,6.84848779 95.8438737,6.81682273 C95.834672,6.78772758 95.8252403,6.75879306 95.8153485,6.73006504 C95.8091373,6.71166259 95.8029262,6.69332898 95.796485,6.6750642 C95.785673,6.64459232 95.774861,6.61432694 95.763589,6.58429102 C95.7157402,6.45687356 95.6630605,6.33349454 95.6053199,6.21461288 C95.5970384,6.19749539 95.5885268,6.18046968 95.5800153,6.16353576 C95.5733441,6.15011252 95.5664428,6.13673518 95.5595415,6.12340373 C95.5466592,6.0984847 95.5335468,6.07377218 95.5199743,6.04928912 C95.5110026,6.03256171 95.5015709,6.01592608 95.4923692,5.99938223 C95.4620036,5.94598759 95.4307179,5.8936714 95.3980519,5.8424566 C95.3559542,5.7763271 95.3120161,5.7120562 95.2660076,5.64975863 C95.1799718,5.53298797 95.0868047,5.42312397 94.9867364,5.32087794 C94.9740841,5.30807424 94.9614317,5.29538527 94.9487794,5.28283397 L94.9430284,5.27718933 L94.9384275,5.27282965 C94.8894285,5.22496492 94.8385892,5.17888996 94.7861396,5.1346736 C94.7525534,5.10622093 94.7180471,5.07852547 94.6830806,5.05163312 L94.674339,5.04500181 L94.6678978,5.0402291 C94.6612266,5.03511221 94.6543254,5.03001827 94.6476541,5.02494727 C94.6405228,5.01978449 94.6336216,5.01464465 94.6264902,5.00955071 C94.6119976,4.99899568 94.5975049,4.98857834 94.5827822,4.97827572 C94.5445952,4.95161282 94.505488,4.9258448 94.4656907,4.90099461 C94.4613199,4.89819523 94.4567191,4.8954188 94.4523483,4.89264237 C94.4424565,4.88649293 94.4323346,4.88038937 94.4222127,4.87433171 C94.4109407,4.86756273 94.3996686,4.86086258 94.3881665,4.85423127 C94.3773545,4.84789826 94.3663125,4.84161114 94.3552705,4.83539286 C94.2897084,4.79851912 94.222076,4.76398584 94.1526033,4.73195365 C94.1424814,4.72731862 94.1323595,4.72272948 94.1222377,4.71818623 C94.047934,4.68493791 93.9710999,4.65446603 93.8921955,4.62693119 C93.8668908,4.61814299 93.8415862,4.60965308 93.8158214,4.60148441 L93.813291,4.60068131 L93.8093803,4.59944224 C93.7238045,4.57236632 93.6356984,4.54861752 93.5450617,4.52833352 C93.508255,4.52014191 93.4712182,4.51250099 93.4337213,4.50545666 L93.432111,4.50515837 L93.4282003,4.50444705 C93.3736803,4.49428211 93.3182401,4.48533329 93.2616497,4.47762353 C93.2460068,4.47548958 93.230594,4.47347036 93.2147211,4.47154292 L93.203449,4.47014323 L93.1940173,4.46904184 C93.1781444,4.46718324 93.1622715,4.46541642 93.1463986,4.46374138 C93.1171832,4.46068961 93.0877378,4.45795907 93.0580623,4.45557272 C93.0479405,4.45474667 93.0375886,4.45396652 93.0274667,4.45323225 C92.9619047,4.44845955 92.8949624,4.4452701 92.8270999,4.44370979 L92.8132974,4.4434115 C92.8084665,4.44331971 92.8038657,4.44322793 92.7992648,4.44315909 L92.7852323,4.44295258 L92.7718898,4.44279196 L92.7711997,4.44279196 L92.7587774,4.44270018 C92.7537165,4.44265429 92.7484255,4.44263134 92.7431345,4.4426084 L92.729102,4.44258545 C92.6994265,4.44258545 92.6697511,4.44290669 92.6403057,4.44352622 C92.6207521,4.44393925 92.6014285,4.44451289 92.5818749,4.44520126 C92.5618613,4.44591258 92.5418476,4.44676157 92.5220639,4.44777118 C92.4999799,4.44887257 92.4778958,4.45018048 92.4558118,4.451649 L92.4509809,4.45197024 L92.4449998,4.45238326 L92.4371784,4.45293396 L92.4367183,4.45297985 C92.4263664,4.45371411 92.4160145,4.45449427 92.4056626,4.45532031 C92.3598842,4.45896868 92.3143358,4.4633972 92.2692475,4.46860587 C92.130302,4.48457608 91.9950372,4.50777418 91.863223,4.53778715 C91.8551715,4.53964575 91.84689,4.54155025 91.8388385,4.54345474 C91.824806,4.54673597 91.8110034,4.55010899 91.7969708,4.5535279 C91.7907597,4.55508821 91.7845486,4.55667146 91.7781074,4.55825471 C91.7689057,4.56057223 91.759934,4.56293564 91.7507324,4.56532199 L91.743371,4.56727237 L91.7399204,4.56816726 L91.7320989,4.57025532 C91.7042638,4.57766678 91.6766588,4.58537653 91.6492837,4.59340752 C91.623289,4.60107139 91.5972942,4.6090106 91.5712994,4.61722516 C91.5568068,4.6218143 91.5425441,4.62649522 91.5280515,4.63126793 L91.5220704,4.63328715 L91.5098781,4.63734854 C91.5029769,4.63966605 91.4960756,4.64200651 91.4894044,4.64436992 C91.4640997,4.65304339 91.4390251,4.66199222 91.4141806,4.67119344 C91.3943969,4.67853606 91.3746133,4.68603931 91.3548297,4.69370317 C91.3318255,4.70274378 91.3088212,4.71199089 91.285817,4.72149041 C91.2669535,4.72938373 91.24786,4.73741473 91.2292266,4.74562929 C91.2246258,4.74757967 91.2200249,4.749553 91.2156541,4.75154928 C91.1947203,4.76070461 91.1740165,4.77006645 91.1535427,4.77963481 C91.1155858,4.79721122 91.0780889,4.81540715 91.0410521,4.83424557 C91.0019449,4.85397887 90.9635279,4.8743776 90.9255709,4.89544175 C90.8694406,4.92662495 90.8142304,4.95923079 90.7601705,4.99325926 C90.7509688,4.99894979 90.7419972,5.00466327 90.7330255,5.01042264 L90.7242839,5.01611318 L90.7162325,5.02125301 C90.6851768,5.04142228 90.6543511,5.06205046 90.6239855,5.08316051 C90.6099529,5.09286654 90.5959204,5.10268729 90.5821178,5.11259984 C90.5713059,5.12035548 90.5604939,5.12815702 90.5496819,5.13600445 C90.5220768,5.15631139 90.4947018,5.17698546 90.4673268,5.19807256 C90.425229,5.23086196 90.3835914,5.26456919 90.3428739,5.29917131 C90.3362027,5.30481595 90.3295315,5.31048354 90.3230903,5.31617407 C90.2828329,5.35077618 90.2432656,5.38625023 90.2046185,5.42257327 C90.196107,5.4306731 90.1873654,5.43881883 90.1788538,5.44698749 C90.168962,5.45634934 90.1593002,5.46578002 90.1496384,5.47523365 C90.1404368,5.48422836 90.1312351,5.49329191 90.1220334,5.50237841 L90.1132918,5.51109778 C90.1052403,5.51919761 90.0971888,5.52734333 90.0891373,5.53553494 C90.0780953,5.54677834 90.0672833,5.55809056 90.0564713,5.56944869 C90.0479598,5.57825983 90.0396783,5.58711687 90.0311667,5.5960198 C90.0148337,5.61341264 89.9987307,5.6309661 89.9828578,5.64865724 C89.9741162,5.65813381 89.9658347,5.66765627 89.9573231,5.67722463 L89.9529523,5.68215795 L89.9492717,5.68621934 C89.9327086,5.70494303 89.9163756,5.72385029 89.9002727,5.74289522 C89.8938315,5.75055908 89.8873903,5.75826884 89.8809491,5.76597859 C89.8680668,5.7813981 89.8551844,5.79690939 89.8427621,5.81253541 C89.8372411,5.81916672 89.8319501,5.82582097 89.8266592,5.83249817 C89.8036549,5.86127207 89.7811108,5.89039017 89.7587967,5.91987539 C89.7477547,5.93442296 89.7369427,5.94903937 89.7261307,5.96374756 L89.7196895,5.97253576 L89.7157788,5.97788211 C89.6833429,6.02235088 89.6518271,6.0675539 89.6210014,6.11346824 C89.6164006,6.12035195 89.6117997,6.12723566 89.6074289,6.13414232 C89.5770633,6.18005666 89.5476179,6.22668232 89.5188627,6.27395045 C89.5080507,6.29189399 89.4972387,6.30992931 89.4866567,6.32803347 C89.4806756,6.3382443 89.4746946,6.34847808 89.4687135,6.35873481 C89.4620422,6.37034533 89.455371,6.38200175 89.4486998,6.39370405 C89.4408783,6.40772387 89.4330569,6.42181253 89.4252355,6.43592414 C89.4003909,6.48124189 89.3762365,6.52711034 89.3527722,6.57350654 C89.3484014,6.5822718 89.3440306,6.59103706 89.3396598,6.59980231 C89.313665,6.65195789 89.2888204,6.70473299 89.264666,6.75815058 C89.2616754,6.76496545 89.2584549,6.77178032 89.2554643,6.77861814 C89.248333,6.79479486 89.2412017,6.81104041 89.2340704,6.82733186 C89.2106061,6.88180494 89.1880619,6.93689757 89.166668,6.99256383 C89.155626,7.02131479 89.144584,7.05024931 89.134002,7.07929857 C89.1300913,7.08996832 89.1261806,7.10063807 89.1224999,7.11135371 C89.084773,7.21704159 89.0504967,7.32467986 89.019671,7.43403906 C89.0095492,7.46969668 88.9998874,7.50553786 88.9906857,7.54153966 C88.9819441,7.57492565 88.9736626,7.60844931 88.9658411,7.64211065 L88.9644609,7.64780118 L88.95963,7.66771805 C88.9078705,7.89233349 88.8701436,8.1232131 88.8478295,8.35852124 C88.8367875,8.47389221 88.8291961,8.59031868 88.8255154,8.70759414 C88.8245952,8.73577146 88.8239051,8.76399467 88.823445,8.79228672 C88.8229849,8.82319457 88.8227549,8.85414832 88.8227549,8.8851709 L88.8227549,18.4986383 L84.3689073,18.4986383 L84.3689073,8.8851709 C84.3689073,8.84630089 84.3684472,8.80752266 84.3677571,8.76876737 C84.367527,8.74974539 84.367067,8.73072341 84.3666069,8.71170142 C84.3643065,8.62042344 84.3599357,8.52953553 84.3539546,8.43915242 C84.3461331,8.32144099 84.334861,8.2046015 84.3208285,8.08886339 C84.3116268,8.01401453 84.3010448,7.93962457 84.2890826,7.86578532 C84.2840217,7.83336305 84.2785007,7.80103256 84.2727496,7.76879385 C84.2626278,7.71165906 84.2518158,7.65484551 84.2400837,7.59842204 C84.2166193,7.48626347 84.1901645,7.37559637 84.1607191,7.26662725 C84.1499071,7.22674762 84.138635,7.18709746 84.1269029,7.14769969 L84.122072,7.13110995 L84.1160909,7.11135371 C84.1078094,7.08441546 84.0995279,7.05761488 84.0907862,7.03092904 C84.078824,6.99364228 84.0664018,6.95660792 84.0537494,6.91980302 L84.0500688,6.90963808 L84.0479984,6.90369514 L84.0415572,6.88536153 L84.0383366,6.87604557 C84.0332757,6.8623011 84.0284448,6.84857957 84.0233839,6.83490394 C84.0029101,6.7791 83.9815162,6.72389265 83.9592021,6.66932778 L83.9580519,6.66643662 C83.8970907,6.51758788 83.8294583,6.37348889 83.7551546,6.23487393 C83.7270895,6.18285603 83.6983342,6.13164124 83.6684287,6.08120659 L83.6654382,6.07622737 L83.6596871,6.0664984 C83.6362228,6.02739893 83.6125285,5.98880426 83.5879139,5.95071441 C83.582853,5.94291287 83.5777921,5.93513428 83.5727311,5.92735568 C83.5370746,5.87272198 83.5002678,5.81914377 83.4620808,5.7667358 C83.4512689,5.75159164 83.4399968,5.7365622 83.4289548,5.72160161 L83.4280346,5.72038549 L83.4257342,5.71744844 C83.3827163,5.66015303 83.3383181,5.60428026 83.2923097,5.5499219 C83.2601038,5.51196971 83.2274378,5.47475179 83.1938516,5.43829108 C83.1759083,5.41890196 83.157965,5.39969641 83.1397917,5.38074326 L83.1395616,5.38060559 L83.1354209,5.37631474 C83.1140269,5.35396563 83.0921729,5.33193776 83.0700889,5.31023113 C83.0201697,5.2613568 82.9688703,5.21406571 82.9164207,5.16842672 C82.85822,5.11808386 82.798409,5.06973727 82.7369877,5.02354758 C82.7300865,5.01845364 82.7231852,5.01338264 82.716514,5.00833458 C82.6822377,4.98316315 82.6477313,4.9586342 82.6125349,4.93477068 C82.607474,4.93125998 82.602183,4.92777224 82.596892,4.92428449 L82.5909109,4.92015427 L82.5812491,4.91379831 C82.5662964,4.90386282 82.5511136,4.89404206 82.5359308,4.88433603 C82.5283394,4.87947154 82.520518,4.87460705 82.5129266,4.86978846 C82.4929129,4.85726011 82.4726692,4.84491532 82.4521955,4.83279999 C82.4354024,4.82274978 82.4183792,4.81286018 82.4013561,4.80310826 C82.3587983,4.77890055 82.3155504,4.75558772 82.2716123,4.73323861 C82.2617205,4.72816761 82.2518287,4.72316545 82.2419369,4.71818623 L82.2352656,4.71497383 L82.2334253,4.71407895 L82.2244536,4.70960454 L82.2182425,4.70659865 C82.209961,4.70253726 82.2014494,4.69849882 82.1931679,4.69450627 C82.1878769,4.69198224 82.182586,4.68948116 82.177065,4.68700303 C82.1697036,4.68346939 82.1621122,4.6799587 82.1545208,4.67647095 C82.1441689,4.67176708 82.1340471,4.66710911 82.1236952,4.66249702 C82.101151,4.65242386 82.0783768,4.6426031 82.0553726,4.63303475 C82.0475512,4.62968467 82.0394997,4.62638049 82.0314482,4.62309926 L82.0227066,4.61951973 L82.0199461,4.61837244 C81.9417318,4.58677622 81.8616771,4.55800231 81.779782,4.53211956 L81.7761013,4.53090344 L81.7678198,4.52833352 C81.7422851,4.5204402 81.7167505,4.51279929 81.6909857,4.50545666 L81.6893754,4.50495186 C81.6739626,4.50061512 81.6587798,4.49639311 81.643597,4.49228583 C81.4966,4.45272745 81.343852,4.42230145 81.1851229,4.40167327 C81.1759212,4.40048009 81.1669495,4.39933281 81.1577478,4.39820847 C81.1427951,4.39637281 81.1276123,4.39462894 81.1126596,4.39295391 L81.0990871,4.39148538 C81.0908055,4.3905905 81.082294,4.38974151 81.0737824,4.38889252 C81.055149,4.38703392 81.0365156,4.38531299 81.0176521,4.38372973 L81.0038496,4.38258245 C80.989587,4.38143517 80.9753244,4.38035672 80.9610617,4.37937005 C80.9205743,4.37654773 80.8798568,4.37434494 80.8386793,4.37276169 C80.8195858,4.37202743 80.8004923,4.37143084 80.7811687,4.37094898 C80.7528735,4.37026061 80.7245783,4.36987053 80.695823,4.36977875 L80.6815604,4.3697558 C80.6350919,4.3697558 80.5890835,4.3705589 80.543305,4.37214216 C80.5357137,4.37239456 80.5281223,4.37269285 80.5205309,4.37299115 C80.5060382,4.37358774 80.4915455,4.37425316 80.4772829,4.37498742 C80.4574993,4.37601998 80.4377157,4.37719021 80.4181621,4.37849812 L80.4174719,4.37854401 L80.4059698,4.37932416 C80.379515,4.38118276 80.3530601,4.38331671 80.3268353,4.38570307 C80.3155632,4.38673562 80.3045212,4.38779112 80.2934792,4.38889252 C80.2831273,4.38992507 80.2727754,4.39100352 80.2624235,4.39215081 L80.2548321,4.39295391 L80.2444802,4.39412414 C80.232518,4.39550088 80.2203258,4.39692351 80.2083636,4.39839204 C80.1936409,4.40022769 80.1789182,4.40213218 80.1641955,4.40410551 C80.1471723,4.40642303 80.1301492,4.40885527 80.1133561,4.41140225 C80.1046145,4.41268721 80.096103,4.41399511 80.0875914,4.41534891 C80.0717185,4.41782704 80.0560756,4.42039696 80.0404327,4.42305866 C80.0116775,4.42796904 79.9831522,4.43320066 79.954857,4.43877646 C79.9479558,4.44008437 79.9412845,4.44143817 79.9346133,4.44279196 C79.8830839,4.45318636 79.8320145,4.46468216 79.7816352,4.47721051 C79.7717434,4.4796657 79.7618516,4.48216678 79.7519598,4.48471375 C79.7029608,4.49733389 79.6546519,4.51096363 79.6068031,4.5255571 C79.5904701,4.53053631 79.5741371,4.53563026 79.5580342,4.54081598 C79.5426214,4.54577226 79.5272085,4.55084325 79.5117957,4.55600604 L79.5046644,4.55843828 L79.4991434,4.56034277 C79.469928,4.57032415 79.4409427,4.58064972 79.4121874,4.59136536 C79.3878029,4.60040596 79.3636485,4.60969897 79.3397241,4.61922143 C79.3181001,4.62780313 79.2967062,4.63656838 79.2755423,4.64554015 L79.2693312,4.64811007 L79.2589793,4.65263037 C79.2447167,4.65871098 79.2304541,4.66490632 79.2164215,4.67119344 L79.2127408,4.67277669 C79.0708047,4.73610682 78.9346197,4.80859228 78.8041858,4.88945292 C78.794524,4.89555648 78.7846322,4.90170592 78.7749704,4.90790126 C78.745295,4.92676263 78.7158496,4.9460829 78.6866342,4.9658162 C78.6813433,4.96941868 78.6760523,4.97302115 78.6707613,4.97664657 C78.658339,4.98520532 78.6459168,4.99385585 78.6334945,5.00257521 C78.6111804,5.01833891 78.5890963,5.03435501 78.5672423,5.05062351 C78.4717748,5.12145688 78.3797579,5.19710884 78.2916517,5.27718933 C78.2870509,5.28138839 78.28245,5.28558745 78.2778492,5.28980946 C78.2320708,5.33184598 78.1874426,5.37509862 78.1437346,5.41952149 L78.1389037,5.42417947 L78.1336127,5.42982411 L78.1303921,5.43299062 L78.1218806,5.44182471 C78.1119887,5.45194377 78.102327,5.46210871 78.0926652,5.47231955 C78.0646,5.50194244 78.036995,5.5320472 78.00985,5.56261087 L78.004559,5.56862264 L77.9976578,5.5762865 C77.9847754,5.59101764 77.971893,5.60586351 77.9590107,5.6208241 C77.9406073,5.64259957 77.9222039,5.6646045 77.9040306,5.68681593 C77.8925285,5.70074397 77.8812564,5.71476379 77.8699843,5.7288754 C77.857102,5.74530452 77.8442196,5.76184836 77.8313372,5.77850694 C77.813624,5.80154442 77.7961408,5.82481136 77.7788876,5.84828481 C77.7397804,5.90124348 77.7020535,5.9552806 77.6652467,6.01037322 C77.6535146,6.02822497 77.6417824,6.04616851 77.6300503,6.06422677 C77.5621878,6.1696852 77.4984661,6.278792 77.4391152,6.39111119 C77.4165711,6.43360662 77.3947171,6.47658392 77.3735532,6.51999718 C77.3512391,6.56531493 77.3298452,6.61111454 77.3089113,6.65735012 C77.3006298,6.67579847 77.2925783,6.69431564 77.2845268,6.71290166 C77.2803861,6.72205699 77.2764754,6.73121233 77.2725646,6.74036766 L77.2721046,6.74135433 L77.2684239,6.75000485 C77.236218,6.82561093 77.2058524,6.90238724 77.1773272,6.9801961 C77.1540929,7.04389336 77.1317788,7.10827898 77.110845,7.17335298 L77.1083145,7.18108568 L77.1023334,7.20029123 C77.0938218,7.22734421 77.0855403,7.25448897 77.0772588,7.28177141 C77.0540245,7.36010802 77.0324006,7.43931657 77.0126169,7.51932822 C76.9969741,7.58231416 76.9822514,7.64575902 76.9689089,7.70966279 C76.9555665,7.7730388 76.9433742,7.83682785 76.9323322,7.90102991 C76.9206,7.96754949 76.9102481,8.03448209 76.9010465,8.10178182 C76.8980559,8.12458985 76.8950654,8.14744376 76.8923048,8.17032062 C76.882183,8.25138777 76.8739015,8.33295973 76.8672302,8.41496766 C76.8545779,8.57033298 76.8483668,8.72728155 76.8483668,8.8851709 L76.8483668,18.4986383 L72.3942892,18.4986383 L72.3942892,0.509807521 L76.5196364,0.509807521 L76.8483668,2.69467395 L76.8538878,2.68402715 C76.8596388,2.67294437 76.8656199,2.66190749 76.871371,2.65093945 C76.8870139,2.62200492 76.9028868,2.59339164 76.9187597,2.56507665 C76.9231305,2.55755046 76.9275013,2.55002427 76.9318721,2.54254397 C76.9355528,2.53584383 76.9394635,2.52914368 76.9433742,2.52248943 C76.9518858,2.50821721 76.9601673,2.49401382 76.9686789,2.47987927 C76.9767303,2.4666396 76.9845518,2.45344583 76.9928333,2.44034383 C77.0213585,2.39378701 77.051034,2.34807918 77.0811695,2.30319739 C77.1044038,2.26891652 77.1278681,2.23511751 77.1517925,2.2018233 C77.1734164,2.171948 77.1952705,2.14248573 77.2173545,2.11339058 C77.2343776,2.09111031 77.2514008,2.06903655 77.268884,2.04719224 C77.3082212,1.9978131 77.3484786,1.94958124 77.3896561,1.90249667 C77.437735,1.8473811 77.4874241,1.7938029 77.5380334,1.74176205 C77.546775,1.73274439 77.5555166,1.72377263 77.5644882,1.71484675 C77.6378717,1.64077804 77.7137856,1.56982994 77.79177,1.50193362 L77.7993614,1.49543998 L77.8039622,1.49147038 C77.8143141,1.48256745 77.824666,1.47373335 77.8350179,1.46494515 L77.8502007,1.45207261 L77.8554917,1.44757526 C77.8750452,1.43137559 77.8943688,1.4153595 77.9141524,1.39952697 C78.0052491,1.32596306 78.0991064,1.25625403 78.195264,1.19033104 C78.2053859,1.18328671 78.2157378,1.17626532 78.2260897,1.16928983 C78.2569153,1.14850103 78.2882011,1.12807936 78.3194868,1.10802482 C78.3427211,1.093156 78.3659554,1.0784937 78.3894197,1.06403791 L78.4082831,1.05251917 C78.4216256,1.04437345 78.4351981,1.03629656 78.4485405,1.02828852 C78.5716131,0.954908173 78.6976763,0.887057744 78.8262699,0.824576608 C78.8529548,0.811681125 78.8794096,0.7990151 78.9063246,0.786555586 C78.9152962,0.782287686 78.9244979,0.778042732 78.9336996,0.773820723 L78.9537133,0.764688336 C78.9833887,0.751219211 79.0132942,0.73804838 79.0429696,0.725152898 C79.0662039,0.715171519 79.0894382,0.705327815 79.1126724,0.695667676 C79.3319027,0.604458526 79.5564239,0.527567491 79.7832455,0.46393907 C79.8097004,0.456481718 79.8363853,0.449184986 79.8630702,0.44207182 C79.9596879,0.416326747 80.0567657,0.392968026 80.1540736,0.371880929 C80.1731671,0.367704812 80.1924906,0.363620478 80.2118142,0.359627927 C80.2304476,0.355750104 80.2493111,0.351964064 80.2679445,0.34824686 C80.2856578,0.344713223 80.303601,0.341248422 80.3213143,0.337875405 C80.3512198,0.332230763 80.3808952,0.326792633 80.4105707,0.321561013 C80.5304227,0.300496863 80.6502747,0.282828675 80.7694366,0.268395831 L80.7899103,0.265917696 L80.8041729,0.264265605 C80.8787066,0.255638023 80.9527802,0.248272454 81.0268538,0.242123007 C81.0671112,0.238772935 81.1073686,0.235789994 81.147626,0.233151239 C81.1791418,0.231086126 81.2104275,0.22925047 81.2417133,0.227644271 C81.3606451,0.221471878 81.4781967,0.218488938 81.594368,0.218488938 C81.6061001,0.218488938 81.6178323,0.218511883 81.6297945,0.21858072 C81.7273324,0.219016689 81.8248703,0.221242421 81.9221782,0.225349701 C82.0850481,0.232210465 82.2476879,0.244302848 82.4096376,0.26194809 C82.4257406,0.263691963 82.4418436,0.265527619 82.4579465,0.26738622 C82.4903825,0.271149315 82.5225884,0.27511892 82.5550243,0.279317983 C82.5761882,0.282094413 82.5973521,0.284962625 82.618746,0.28792262 L82.6244971,0.288725719 L82.6429005,0.291341529 C82.7261757,0.303296238 82.809221,0.316742417 82.8918062,0.331794795 C82.9621991,0.344552603 83.0321319,0.358480642 83.1018347,0.373555965 L83.1186278,0.377204331 L83.1349608,0.38078386 C83.1982224,0.394826628 83.261254,0.409833114 83.3240555,0.425826266 L83.3380881,0.429405795 L83.3461396,0.431493853 C83.397439,0.444756467 83.4485083,0.45866156 83.4993477,0.473255024 C83.5474265,0.487114225 83.5957354,0.501570015 83.6435842,0.516645339 C83.658997,0.521532773 83.6746399,0.526466098 83.6900527,0.531491206 C83.7045453,0.536149182 83.718808,0.540875996 83.7333006,0.545671647 C83.7802292,0.561297667 83.8269278,0.577543222 83.8736264,0.594385364 C83.8917997,0.600947834 83.909743,0.607579141 83.9279163,0.614325176 C84.0611108,0.664117341 84.192695,0.719003451 84.3219787,0.779190017 C84.3385417,0.786876826 84.3551048,0.794678363 84.3714378,0.802548738 C84.405254,0.818656618 84.4386101,0.835131629 84.4721963,0.851973771 L84.4843885,0.85816911 L84.503482,0.867989869 C84.5186648,0.875676677 84.5336175,0.883432323 84.5483402,0.891279752 C84.5745651,0.90500128 84.6005598,0.918952264 84.6263246,0.933132706 C84.6691124,0.956468481 84.7114402,0.980446735 84.7535379,1.00506747 C84.781143,1.02124419 84.808518,1.03769625 84.835893,1.05440072 L84.857517,1.06764039 C84.9976127,1.15423745 85.1340277,1.24820009 85.2667621,1.34984953 C85.3268031,1.39601627 85.3863841,1.44376627 85.4448148,1.49312247 L85.4560869,1.50266788 L85.4724199,1.51655003 C85.5736384,1.60326182 85.6723266,1.69486105 85.7680241,1.79153127 C85.778376,1.80199451 85.7887279,1.81252659 85.7988498,1.82310455 L85.8,1.82429773 L85.8013803,1.82565153 C85.8312857,1.85639876 85.8607311,1.8876508 85.8899465,1.9193847 C85.9207722,1.95263302 85.9509077,1.98640909 85.9810432,2.0207588 L85.9897848,2.03092374 C86.0091084,2.05327285 86.0284319,2.07585142 86.0475254,2.09868239 L86.0512061,2.10297323 L86.0597177,2.11339058 C86.0707597,2.12663025 86.0818017,2.13991581 86.0926137,2.15331609 C86.1137776,2.1791759 86.1344814,2.20533399 86.1551852,2.23179038 C86.1931422,2.28018286 86.230179,2.32958495 86.2667557,2.37999665 C86.2731969,2.38867012 86.279408,2.39738949 86.2856191,2.40615474 C86.2932105,2.4167786 86.3008019,2.4274713 86.3083933,2.43820988 C86.3224259,2.45803497 86.3362284,2.47802067 86.350031,2.49814405 C86.3619932,2.51542216 86.3737253,2.53279205 86.3852274,2.55029962 C86.3987999,2.5703771 86.4121424,2.59061521 86.4252548,2.61099099 C86.4300857,2.61831067 86.4346865,2.62565329 86.4395174,2.63301886 C86.4751739,2.68889163 86.5103704,2.74588875 86.5446467,2.8040102 C86.5531583,2.81832832 86.5616698,2.83271527 86.5699513,2.84717106 C86.5782329,2.8616498 86.5867444,2.87617442 86.5950259,2.89076789 C86.6437949,2.97692898 86.6911836,3.06547643 86.736732,3.15650202 C86.7454736,3.17389486 86.7539851,3.19135653 86.7624967,3.20893294 L86.7666374,3.21728517 L86.7733087,3.23091492 C86.7827404,3.25057938 86.7921721,3.27035857 86.8016039,3.29025249 C86.8137961,3.31634175 86.8259883,3.34261457 86.8379505,3.36909391 C86.8455419,3.38600489 86.8533634,3.40298471 86.8609548,3.42005631 C86.8653256,3.43006063 86.8696964,3.44011085 86.8740672,3.45018401 C86.8910903,3.48926053 86.9078834,3.52872713 86.9244464,3.5686297 L86.9433099,3.53884618 Z M70.7149809,2.65825913 L62.4279397,14.1288825 L70.7881343,14.1288825 L70.7881343,18.4986383 L55.6375532,18.4986383 L55.6375532,16.6414823 L64.2533248,4.58824474 L56.2945538,4.58824474 L56.2945538,0.546222344 L70.7149809,0.546222344 L70.7149809,2.65825913 Z M30.648066,4.47922973 C30.6356437,4.47932151 30.6229914,4.47945919 30.6105691,4.4796657 C30.5898653,4.47994105 30.5691615,4.48033112 30.5484577,4.48083593 C30.5330448,4.48120306 30.517632,4.48161608 30.5022192,4.48209794 C30.4237748,4.48450724 30.3455604,4.48836212 30.2678062,4.49368552 C30.1649773,4.5007069 30.0628385,4.51032115 29.9613899,4.52257415 C29.9416063,4.52496051 29.9218226,4.52743864 29.9022691,4.53003151 C29.863622,4.53510251 29.8252049,4.54054064 29.7867879,4.54639179 C29.7345683,4.55435395 29.6825787,4.56302742 29.6308192,4.5724581 C29.5781396,4.5820494 29.5254599,4.59244381 29.4732403,4.60359541 C29.3996268,4.61935911 29.3264734,4.63666017 29.2540101,4.65554447 L29.2415878,4.65875687 L29.2385972,4.65958292 L29.2289355,4.66210694 L29.2227243,4.66380493 C29.2008703,4.66965608 29.1790163,4.67566785 29.1571623,4.68179435 C29.1438198,4.68558039 29.1304774,4.68941233 29.1171349,4.69331309 C29.1086234,4.69581418 29.1001118,4.6983382 29.0916002,4.70088517 C29.0745771,4.70595617 29.057554,4.71111896 29.0405309,4.71637352 C29.0241979,4.72146747 29.0076348,4.72665319 28.9913018,4.73195365 C28.9774993,4.73642806 28.9634667,4.74097131 28.9496642,4.74560634 L28.9411526,4.74842866 L28.9383921,4.74932354 L28.9287303,4.75258183 L28.9243595,4.75411919 C28.9061862,4.76026864 28.8880129,4.76653282 28.8700696,4.77291172 C28.8567271,4.77763853 28.8433847,4.78241124 28.8300422,4.78725278 C28.8199204,4.79096999 28.8097985,4.79468719 28.7994466,4.79847323 L28.7941556,4.80044656 L28.7821934,4.80498981 C28.7681609,4.81024437 28.7543583,4.81554483 28.7405558,4.82091412 C28.7267533,4.82626047 28.7131808,4.83165271 28.6993782,4.83711378 C28.6791345,4.84525951 28.6588908,4.85351996 28.6386471,4.86194103 C28.6239244,4.86818226 28.6089716,4.87446938 28.5942489,4.88087123 L28.5903382,4.88247743 L28.5880378,4.88348704 L28.5786061,4.88761727 L28.5779159,4.88791556 C28.567564,4.89238997 28.5574422,4.89691027 28.5470903,4.90147647 C28.5243161,4.91161847 28.5015419,4.92196698 28.4789978,4.932522 C28.4658854,4.93862555 28.453003,4.94479795 28.4398906,4.95103918 C28.4318391,4.95487111 28.4240177,4.95872598 28.4159662,4.96260381 C28.4109053,4.96510489 28.4058444,4.96765186 28.4005534,4.97017589 C28.3902015,4.97533867 28.3796195,4.9805244 28.3692676,4.98573307 C28.3154378,5.01290078 28.262298,5.04119282 28.2096183,5.07070099 L28.1992664,5.07659804 L28.1946656,5.07907617 C28.174882,5.09043429 28.1548683,5.10197598 28.1350847,5.11365534 C28.1024187,5.13286089 28.0704428,5.15252535 28.0384669,5.17267167 C28.0306455,5.17751322 28.0230541,5.1823777 28.0154627,5.18728808 C28.0099417,5.19082172 28.0044207,5.1943783 27.9988997,5.19795783 L27.9913083,5.20296 L27.984407,5.20736557 C27.9600225,5.22328988 27.9358681,5.23948955 27.9119437,5.2559875 C27.8930802,5.26906655 27.8742168,5.28230622 27.8553533,5.29572945 C27.8486821,5.30054805 27.8420109,5.30538959 27.8353396,5.31023113 C27.815556,5.3245263 27.7960024,5.33902798 27.7766789,5.35371323 L27.7711579,5.35791229 L27.7635665,5.36364872 L27.760806,5.36571383 L27.7585055,5.3674577 C27.7453931,5.37753087 27.7322807,5.38769581 27.7193984,5.39795254 L27.7101967,5.40520338 L27.7023752,5.41137577 C27.6828216,5.42697885 27.6634981,5.44278843 27.6441745,5.45880453 C27.6368132,5.46493103 27.6294518,5.47108048 27.6220905,5.47727582 L27.6204802,5.47865256 L27.6112785,5.4864541 C27.6055274,5.49150215 27.5995464,5.49657315 27.5935653,5.50169004 C27.5655001,5.5258748 27.537895,5.55056438 27.51052,5.57568992 L27.5043089,5.58133456 L27.5038488,5.58186231 L27.4948771,5.59014571 L27.4882059,5.59647872 C27.4836051,5.60060894 27.4792343,5.60473917 27.4748635,5.60889234 C27.4566901,5.62607867 27.4387468,5.64344856 27.4208035,5.66104791 C27.4159727,5.66575178 27.4113718,5.67045565 27.4065409,5.67518246 C27.3678938,5.71363945 27.3301669,5.75310605 27.2929001,5.79358226 C27.2772572,5.81086038 27.2613843,5.82832205 27.2459714,5.84596729 L27.2404504,5.8523462 L27.2369998,5.85620107 C27.2066342,5.89089497 27.1769588,5.92632313 27.1477434,5.96248555 C27.1396919,5.97239809 27.1316405,5.98237947 27.123819,5.99242968 L27.1217486,5.99495371 L27.1199083,5.99729417 C27.0715994,6.05865097 27.0249009,6.12207288 26.9798126,6.1875599 L26.9784323,6.18980858 L26.9731414,6.19751833 C26.9637096,6.21103335 26.954738,6.2246631 26.9455363,6.23836168 L26.9402453,6.246255 L26.9377149,6.25027049 C26.8940068,6.31681302 26.8519091,6.3854436 26.8116517,6.45616224 C26.8068208,6.46451448 26.8019899,6.4729126 26.7973891,6.48133367 C26.7907179,6.49340311 26.7838166,6.50551844 26.7773754,6.51770261 L26.7764553,6.5190564 L26.7709342,6.52931313 C26.7217052,6.62015515 26.6754667,6.71437018 26.6322188,6.81200413 C26.6287681,6.81959916 26.6255476,6.82724007 26.6220969,6.83490394 C26.6096746,6.86328777 26.5977124,6.89194694 26.5857503,6.92090441 C26.5714876,6.95580482 26.5574551,6.9911412 26.5438826,7.02689059 C26.5383616,7.04171351 26.5328405,7.05658233 26.5273195,7.07154292 C26.5201882,7.09127622 26.5130569,7.11110131 26.5059256,7.13108701 L26.5008647,7.14538218 C26.4992544,7.15052201 26.497414,7.15566185 26.4955737,7.16080169 C26.491663,7.17259578 26.4875222,7.18441281 26.4836115,7.19627574 C26.4813111,7.20343479 26.4790107,7.21059385 26.4764802,7.21777586 C26.4608373,7.26559469 26.4458846,7.31414779 26.4313919,7.36338926 C26.3987259,7.4751807 26.3695106,7.59064345 26.3439759,7.70984635 C26.3308635,7.7706754 26.3186712,7.83249111 26.3073992,7.89527054 C26.3053288,7.90722525 26.3032584,7.91922585 26.301188,7.93124939 C26.2965872,7.9578664 26.2922164,7.98462109 26.2880756,8.01158228 C26.2862353,8.02232087 26.284625,8.03310535 26.2830147,8.04391277 C26.279564,8.06607832 26.2763435,8.08838153 26.2733529,8.11079948 C26.2648413,8.17077954 26.25748,8.23160858 26.2508088,8.29328662 C26.2441375,8.35533179 26.2381564,8.41822594 26.2333256,8.48199204 C26.2305651,8.51627291 26.2280346,8.55080619 26.2259642,8.58559187 C26.2243539,8.61170407 26.2227436,8.63795395 26.2215934,8.66436445 C26.219293,8.70697461 26.2174526,8.7499519 26.2160724,8.79331927 C26.2156123,8.8126625 26.2149222,8.8320975 26.2144621,8.8515784 C26.214002,8.87672688 26.2135419,8.9019901 26.2130818,8.92736804 C26.2126218,8.96162597 26.2123917,8.99611335 26.2123917,9.03083019 L26.2123917,18.4986383 L21.7584751,18.4986383 L21.7584751,0.546222344 L25.8838914,0.546222344 L26.2123917,2.6218443 L26.2287247,2.59591567 C26.2342457,2.58705863 26.2397667,2.57824748 26.2452878,2.56948222 C26.290376,2.49885536 26.3359244,2.43017889 26.3817028,2.36340691 C26.4028667,2.3327744 26.4240306,2.30255492 26.4451945,2.27270256 C26.4672785,2.24165703 26.4895926,2.21104747 26.5119067,2.18082799 L26.5289298,2.15792818 C26.5425023,2.13980108 26.5560748,2.1218346 26.5696473,2.10402874 C26.5820696,2.08771434 26.5944919,2.07151468 26.6071442,2.05545269 C26.6165759,2.04317674 26.6262377,2.03096963 26.6358995,2.01883136 C26.6591337,1.98950676 26.682368,1.96061812 26.7058323,1.93216546 L26.7189447,1.91642471 L26.7263061,1.90745294 C26.7375781,1.89402971 26.7486201,1.88069826 26.7598922,1.86745859 C26.7826664,1.84072685 26.8054406,1.81438519 26.8282148,1.7884336 C26.8825047,1.72673262 26.9372548,1.66721148 26.992695,1.6097784 C27.1868506,1.40815455 27.3869873,1.23220693 27.592415,1.07883789 C27.6375033,1.04522244 27.6825916,1.01270839 27.72814,0.981226889 L27.7325108,0.978175111 L27.7426326,0.971199619 C27.8288985,0.911999718 27.9160845,0.856539965 28.0039606,0.80461385 C28.0184532,0.796032159 28.0329459,0.787565197 28.0474386,0.779190017 L28.0642317,0.769483987 L28.0727432,0.764688336 C28.0971277,0.75085208 28.1215122,0.737291172 28.1461267,0.723982667 C28.1994965,0.694979305 28.2528663,0.66721501 28.3069262,0.640643892 L28.3230292,0.632727626 L28.3280901,0.630272436 C28.5949391,0.500216219 28.8677692,0.399094527 29.14451,0.32094148 C29.193739,0.307059332 29.2431981,0.293911447 29.2926571,0.281428987 C29.4483957,0.242123007 29.6055146,0.209677789 29.7633235,0.183083725 L29.7706849,0.181867603 L29.7847175,0.179527142 C29.7946093,0.177897998 29.8042711,0.176314744 29.8141629,0.174754437 L29.8341766,0.171542039 L29.8507396,0.168995067 C29.9604697,0.151992304 30.0704299,0.13772008 30.1808502,0.125811263 C30.1983334,0.123952661 30.2155866,0.122139951 30.2328397,0.120373132 C30.2498629,0.118675151 30.2666559,0.11702306 30.283449,0.115416862 C30.2993219,0.113925391 30.3149648,0.112502758 30.3306077,0.11110307 C30.5254534,0.0937790682 30.7207593,0.0833158299 30.9158351,0.077831808 L30.9229664,0.0776252967 L30.9323982,0.0773728941 C31.029476,0.0747800302 31.1263237,0.0733803426 31.2229415,0.0729902657 C31.2443354,0.0728755372 31.2654993,0.0728296458 31.2868932,0.0728296458 C31.3087472,0.0728296458 31.3306012,0.0729214286 31.3524553,0.0731279399 L31.3740792,0.0733573969 C31.3832809,0.0734721254 31.3924826,0.0736097996 31.4016843,0.0737474738 C31.6802654,0.0781989392 31.9567762,0.0988041761 32.2289161,0.133956986 C32.2477796,0.136412175 32.2668731,0.138913256 32.2857366,0.14150612 L32.3004593,0.143548287 L32.3218532,0.146531228 L32.3335854,0.14822921 C32.3708522,0.153552612 32.407889,0.159151362 32.4446958,0.165002515 C32.4695403,0.16892623 32.4941548,0.172964672 32.5187694,0.177094898 C32.7216666,0.211375771 32.9218033,0.253618801 33.1177993,0.303181509 L33.1311418,0.306577473 L33.1497752,0.311373124 C33.1663382,0.315618078 33.1829013,0.319931869 33.1992343,0.324291552 L33.2118866,0.327641623 L33.2298299,0.332414329 C33.2535242,0.338793233 33.2769885,0.34526392 33.3006829,0.351849335 C33.322997,0.358090565 33.3453111,0.364446523 33.3673951,0.370894264 C33.4527408,0.395606781 33.5371663,0.42169604 33.6206716,0.449093204 C33.6347042,0.45375118 33.6489668,0.458455048 33.6629994,0.463181862 C33.677032,0.467862785 33.6908345,0.472543707 33.704637,0.477293467 C33.7287915,0.485553918 33.7529459,0.493929098 33.7768703,0.50239606 C33.8606057,0.531996011 33.9431908,0.562926812 34.0246258,0.595119627 C34.0513107,0.605697593 34.0779956,0.616390289 34.1044504,0.627220658 C34.1210135,0.633966693 34.1373465,0.64075862 34.1536795,0.647596438 C34.1723129,0.655420921 34.1911764,0.663337187 34.2095797,0.671299344 C34.3844118,0.74626294 34.5532628,0.827100635 34.7149825,0.913147002 C34.7246443,0.918240947 34.734076,0.923334892 34.7435077,0.928451783 C34.7596107,0.93705642 34.7754836,0.945706948 34.7911265,0.954403368 L34.8028586,0.960828163 L34.8194217,0.970006442 C34.8350645,0.978771699 34.8507074,0.987605793 34.8663503,0.996485778 C34.8831434,1.00591646 34.8994764,1.01541598 34.9160394,1.02498434 C34.968029,1.05527266 35.0193284,1.08611167 35.0697076,1.11750139 C35.0816698,1.12484401 35.093402,1.13223253 35.1051341,1.13966693 C35.1159461,1.1465277 35.1267581,1.15341141 35.13734,1.16031806 C35.1543632,1.17119432 35.1711562,1.18213942 35.1879493,1.19313041 C35.2054325,1.20460326 35.2226857,1.21614495 35.2399389,1.22773252 C35.2562719,1.23872351 35.2723748,1.24973745 35.2884778,1.26082022 C35.3239043,1.28539506 35.3591007,1.31022231 35.3936071,1.3353249 C35.4071796,1.34519155 35.420522,1.35510409 35.4340945,1.36506253 C35.4851639,1.40310649 35.535083,1.4417241 35.583852,1.48089241 C35.6017953,1.49530231 35.6195085,1.50980399 35.6369918,1.52437451 C35.6503342,1.53545728 35.6636767,1.54660889 35.6767891,1.55780639 C35.7352198,1.60746088 35.7918102,1.65791847 35.8458701,1.70915622 C35.8543817,1.71707248 35.8626632,1.72501169 35.8709447,1.73297385 C35.8826769,1.74417135 35.894179,1.7553918 35.905451,1.76665814 L35.9118922,1.77280758 L35.9233943,1.78432632 L33.9155858,5.64427461 C33.8645164,5.60166445 33.8139071,5.56017862 33.7635279,5.51984009 C33.7230404,5.48757843 33.682783,5.45607399 33.6425256,5.42528086 C33.5537293,5.35754516 33.4651631,5.2933431 33.3759067,5.23272057 C33.3641745,5.22473546 33.3524424,5.21679625 33.3404802,5.20890293 L33.3197764,5.19508962 L33.317706,5.19366699 C33.1454044,5.08010873 32.9705723,4.97974424 32.7881488,4.89282594 C32.7814776,4.88968238 32.7750364,4.88653882 32.7683652,4.88344115 C32.6206781,4.81400747 32.46793,4.75336199 32.3078206,4.70161944 L32.2965486,4.69797107 L32.2940181,4.69716797 C32.2781452,4.69209697 32.2620422,4.68711776 32.2461693,4.68220738 L32.2422586,4.68106009 C32.1658846,4.65779315 32.0876702,4.63649955 32.0073855,4.61722516 L32.0037048,4.61635322 L31.9977237,4.6148847 C31.9326218,4.59939635 31.8661396,4.58521591 31.7982771,4.57234337 C31.6434587,4.54297288 31.4812789,4.5204861 31.3098974,4.50495186 C31.2898838,4.50313915 31.2698701,4.50141822 31.2496264,4.49981202 C31.2289226,4.49813699 31.2082188,4.49657668 31.1872849,4.4951311 C31.1748627,4.49425916 31.1624404,4.49343312 31.1497881,4.49263002 C31.1155118,4.49045018 31.0805453,4.48849979 31.0453489,4.4868477 C31.0103825,4.48519561 30.9747259,4.48379592 30.9388393,4.48264864 L30.936999,4.4825798 L30.9323982,4.48244213 C30.9195158,4.48205205 30.9066334,4.48168492 30.893521,4.48136368 C30.8856996,4.48118011 30.8778781,4.4809736 30.8700567,4.48081298 C30.8254285,4.47982632 30.7803402,4.47925268 30.7345618,4.47906911 L30.7198391,4.47902322 L30.702816,4.47900027 L30.675441,4.47904616 L30.648066,4.47922973 Z M112.844684,4.07843722 C109.887492,4.07843722 107.514606,6.08125248 107.514606,9.50422289 C107.514606,12.9271933 109.887492,14.9664004 112.844684,14.9664004 L112.865158,14.9663775 C119.8474,14.9451757 119.8474,4.09968494 112.865158,4.07846017 L112.844684,4.07843722 Z M9.96655653,4.44258545 C6.75387879,4.44258545 4.85550131,6.73669635 4.85550131,9.54063771 C4.85550131,12.3445561 6.93641729,14.63869 9.96655653,14.63869 L9.98429278,14.6386441 C13.0047932,14.6297182 15.0775887,12.3390721 15.0775887,9.54063771 C15.0775887,6.74218037 13.1866186,4.45155722 9.98535098,4.4426084 L9.96655653,4.44258545 Z M45.4236783,3.93282382 C45.329591,3.93319095 45.2364239,3.9353249 45.1437169,3.93922567 L45.1352053,3.93961575 C45.0917273,3.9414973 45.0484794,3.94376892 45.0054615,3.94643062 C44.7988836,3.95923432 44.5962164,3.98098684 44.39815,4.01175702 C44.3298275,4.02235794 44.261965,4.0340373 44.1947927,4.04674921 C44.1761593,4.0502599 44.1577559,4.05386238 44.1391225,4.05753369 C44.1080668,4.06372903 44.0770111,4.07015382 44.0461854,4.07680808 C44.0199606,4.08242977 43.9941959,4.08818914 43.9682011,4.09413208 C43.9553187,4.09711502 43.9422063,4.10014385 43.9293239,4.10324152 C43.8948176,4.11141019 43.8603113,4.11987715 43.826265,4.12861946 C43.765994,4.14406192 43.706183,4.1604222 43.6468321,4.17770031 C43.6302691,4.18254185 43.613706,4.18745223 43.597143,4.19243145 C43.0287086,4.3639276 42.5092733,4.62041461 42.0567802,4.96186954 C42.0411373,4.97366363 42.0254945,4.98557245 42.0100816,4.99757305 C41.9928285,5.01101923 41.9755753,5.02458014 41.9583221,5.03827872 C41.8985112,5.08607461 41.8400804,5.13540786 41.7827999,5.18630142 L41.7793493,5.18933025 C41.7747484,5.1933228 41.7703776,5.19731535 41.7660068,5.20133085 L41.7607159,5.20605766 L41.7535846,5.21243657 C41.7370215,5.227466 41.7204585,5.24261016 41.7041255,5.257892 C41.5470066,5.4045609 41.4000097,5.56339102 41.2640547,5.73440531 C41.2502522,5.7517752 41.2366797,5.76925982 41.2231072,5.78685918 C41.2182763,5.7931463 41.2134454,5.79945636 41.2086145,5.80576643 C41.2030935,5.81304022 41.1975725,5.82033695 41.1920515,5.82765663 C41.1858403,5.83587119 41.1796292,5.84408575 41.1736481,5.8523462 C41.1658267,5.86283238 41.1580052,5.87336446 41.1504138,5.88391948 C41.1320105,5.90941215 41.1136071,5.93513428 41.0956638,5.96108586 C41.0866921,5.97398134 41.0777205,5.98692272 41.0689789,5.99993293 C41.048045,6.03056543 41.0275713,6.06156507 41.0073276,6.09288595 L41.0036469,6.09857648 L40.9976658,6.10814484 C40.9590187,6.16856086 40.9217519,6.23021595 40.8856352,6.29311011 C40.862861,6.33296679 40.840547,6.37332827 40.8186929,6.41417162 L40.8147822,6.42149129 L40.8115616,6.4276178 L40.8085711,6.43303298 C40.7719944,6.50223721 40.737028,6.57286406 40.7032117,6.64495945 C40.6866487,6.6806859 40.6703157,6.71680243 40.6544428,6.75326314 C40.6493819,6.76457537 40.644551,6.77593349 40.6397201,6.7873375 C40.6233871,6.82526674 40.6075142,6.86358606 40.5921013,6.90227251 C40.5778387,6.93781539 40.5640362,6.97365657 40.5504637,7.00984194 L40.5474732,7.01807945 L40.5456328,7.02289804 C40.541032,7.03528872 40.5364311,7.04772529 40.5320603,7.0601848 L40.5286097,7.06961548 L40.5251591,7.07929857 C40.5219385,7.0882015 40.5187179,7.09712738 40.5157273,7.10605325 C40.5097462,7.12280361 40.5039952,7.13962281 40.4982441,7.1564879 L40.4968639,7.16080169 L40.4924931,7.17335298 C40.4883523,7.18590428 40.4842115,7.19850147 40.4800708,7.21114455 C40.4628176,7.26371314 40.4462546,7.31690127 40.4303817,7.37073188 C40.4280812,7.37873993 40.4257808,7.38677092 40.4234804,7.39480192 C40.4202598,7.40602236 40.4170392,7.4172887 40.4138186,7.42857798 L50.1248212,7.42857798 C49.8453199,5.19818729 48.1614108,4.03506985 45.7772532,3.93922567 L45.7756429,3.93917978 L45.7478078,3.93812428 L45.743897,3.93796366 L45.7185924,3.93709172 L45.7121512,3.93690816 L45.689147,3.93619684 L45.6804054,3.93594444 L45.6599316,3.93539374 L45.6491196,3.93514134 L45.6302562,3.93470537 L45.6178339,3.93445297 L45.6008108,3.93410878 L45.5867782,3.93387932 L45.5711353,3.93362692 L45.5554925,3.93344336 L45.5414599,3.93325979 L45.5242067,3.93309917 L45.5115544,3.93298444 L45.4920008,3.93289266 L45.4818789,3.93282382 L45.4517434,3.93277793 L45.4236783,3.93282382 Z" id="Shape"></path>
                </g>
            </g>
        </g>
    </g>
</svg>